%TF.GenerationSoftware,KiCad,Pcbnew,9.0.6-9.0.6~ubuntu24.04.1*%
%TF.CreationDate,2025-12-14T15:25:01+01:00*%
%TF.ProjectId,MCM-81349,4d434d2d-3831-4333-9439-2e6b69636164,rev?*%
%TF.SameCoordinates,Original*%
%TF.FileFunction,OtherDrawing,Comment*%
%FSLAX46Y46*%
G04 Gerber Fmt 4.6, Leading zero omitted, Abs format (unit mm)*
G04 Created by KiCad (PCBNEW 9.0.6-9.0.6~ubuntu24.04.1) date 2025-12-14 15:25:01*
%MOMM*%
%LPD*%
G01*
G04 APERTURE LIST*
%ADD10C,0.250000*%
%ADD11C,0.375000*%
%ADD12C,0.000000*%
%ADD13C,0.010000*%
G04 APERTURE END LIST*
D10*
X116521241Y-75342142D02*
X116921241Y-76542142D01*
X116921241Y-76542142D02*
X117321241Y-75342142D01*
X117664098Y-76485000D02*
X117835527Y-76542142D01*
X117835527Y-76542142D02*
X118121241Y-76542142D01*
X118121241Y-76542142D02*
X118235527Y-76485000D01*
X118235527Y-76485000D02*
X118292669Y-76427857D01*
X118292669Y-76427857D02*
X118349812Y-76313571D01*
X118349812Y-76313571D02*
X118349812Y-76199285D01*
X118349812Y-76199285D02*
X118292669Y-76085000D01*
X118292669Y-76085000D02*
X118235527Y-76027857D01*
X118235527Y-76027857D02*
X118121241Y-75970714D01*
X118121241Y-75970714D02*
X117892669Y-75913571D01*
X117892669Y-75913571D02*
X117778384Y-75856428D01*
X117778384Y-75856428D02*
X117721241Y-75799285D01*
X117721241Y-75799285D02*
X117664098Y-75685000D01*
X117664098Y-75685000D02*
X117664098Y-75570714D01*
X117664098Y-75570714D02*
X117721241Y-75456428D01*
X117721241Y-75456428D02*
X117778384Y-75399285D01*
X117778384Y-75399285D02*
X117892669Y-75342142D01*
X117892669Y-75342142D02*
X118178384Y-75342142D01*
X118178384Y-75342142D02*
X118349812Y-75399285D01*
X118864098Y-75342142D02*
X118864098Y-76313571D01*
X118864098Y-76313571D02*
X118921241Y-76427857D01*
X118921241Y-76427857D02*
X118978384Y-76485000D01*
X118978384Y-76485000D02*
X119092669Y-76542142D01*
X119092669Y-76542142D02*
X119321241Y-76542142D01*
X119321241Y-76542142D02*
X119435526Y-76485000D01*
X119435526Y-76485000D02*
X119492669Y-76427857D01*
X119492669Y-76427857D02*
X119549812Y-76313571D01*
X119549812Y-76313571D02*
X119549812Y-75342142D01*
X120121241Y-76542142D02*
X120121241Y-75342142D01*
X120121241Y-75342142D02*
X120578384Y-75342142D01*
X120578384Y-75342142D02*
X120692669Y-75399285D01*
X120692669Y-75399285D02*
X120749812Y-75456428D01*
X120749812Y-75456428D02*
X120806955Y-75570714D01*
X120806955Y-75570714D02*
X120806955Y-75742142D01*
X120806955Y-75742142D02*
X120749812Y-75856428D01*
X120749812Y-75856428D02*
X120692669Y-75913571D01*
X120692669Y-75913571D02*
X120578384Y-75970714D01*
X120578384Y-75970714D02*
X120121241Y-75970714D01*
D11*
X112339003Y-55714428D02*
X112339003Y-56928714D01*
X112339003Y-56928714D02*
X112410432Y-57071571D01*
X112410432Y-57071571D02*
X112481861Y-57143000D01*
X112481861Y-57143000D02*
X112624718Y-57214428D01*
X112624718Y-57214428D02*
X112910432Y-57214428D01*
X112910432Y-57214428D02*
X113053289Y-57143000D01*
X113053289Y-57143000D02*
X113124718Y-57071571D01*
X113124718Y-57071571D02*
X113196146Y-56928714D01*
X113196146Y-56928714D02*
X113196146Y-55714428D01*
D10*
X64778758Y-77399285D02*
X64664473Y-77342142D01*
X64664473Y-77342142D02*
X64493044Y-77342142D01*
X64493044Y-77342142D02*
X64321615Y-77399285D01*
X64321615Y-77399285D02*
X64207330Y-77513571D01*
X64207330Y-77513571D02*
X64150187Y-77627857D01*
X64150187Y-77627857D02*
X64093044Y-77856428D01*
X64093044Y-77856428D02*
X64093044Y-78027857D01*
X64093044Y-78027857D02*
X64150187Y-78256428D01*
X64150187Y-78256428D02*
X64207330Y-78370714D01*
X64207330Y-78370714D02*
X64321615Y-78485000D01*
X64321615Y-78485000D02*
X64493044Y-78542142D01*
X64493044Y-78542142D02*
X64607330Y-78542142D01*
X64607330Y-78542142D02*
X64778758Y-78485000D01*
X64778758Y-78485000D02*
X64835901Y-78427857D01*
X64835901Y-78427857D02*
X64835901Y-78027857D01*
X64835901Y-78027857D02*
X64607330Y-78027857D01*
X65350187Y-78542142D02*
X65350187Y-77342142D01*
X65350187Y-77342142D02*
X66035901Y-78542142D01*
X66035901Y-78542142D02*
X66035901Y-77342142D01*
X66607330Y-78542142D02*
X66607330Y-77342142D01*
X66607330Y-77342142D02*
X66893044Y-77342142D01*
X66893044Y-77342142D02*
X67064473Y-77399285D01*
X67064473Y-77399285D02*
X67178758Y-77513571D01*
X67178758Y-77513571D02*
X67235901Y-77627857D01*
X67235901Y-77627857D02*
X67293044Y-77856428D01*
X67293044Y-77856428D02*
X67293044Y-78027857D01*
X67293044Y-78027857D02*
X67235901Y-78256428D01*
X67235901Y-78256428D02*
X67178758Y-78370714D01*
X67178758Y-78370714D02*
X67064473Y-78485000D01*
X67064473Y-78485000D02*
X66893044Y-78542142D01*
X66893044Y-78542142D02*
X66607330Y-78542142D01*
X64150187Y-73462142D02*
X64150187Y-72262142D01*
X64950187Y-72262142D02*
X65178759Y-72262142D01*
X65178759Y-72262142D02*
X65293044Y-72319285D01*
X65293044Y-72319285D02*
X65407330Y-72433571D01*
X65407330Y-72433571D02*
X65464473Y-72662142D01*
X65464473Y-72662142D02*
X65464473Y-73062142D01*
X65464473Y-73062142D02*
X65407330Y-73290714D01*
X65407330Y-73290714D02*
X65293044Y-73405000D01*
X65293044Y-73405000D02*
X65178759Y-73462142D01*
X65178759Y-73462142D02*
X64950187Y-73462142D01*
X64950187Y-73462142D02*
X64835902Y-73405000D01*
X64835902Y-73405000D02*
X64721616Y-73290714D01*
X64721616Y-73290714D02*
X64664473Y-73062142D01*
X64664473Y-73062142D02*
X64664473Y-72662142D01*
X64664473Y-72662142D02*
X64721616Y-72433571D01*
X64721616Y-72433571D02*
X64835902Y-72319285D01*
X64835902Y-72319285D02*
X64950187Y-72262142D01*
X66607330Y-73462142D02*
X65921616Y-73462142D01*
X66264473Y-73462142D02*
X66264473Y-72262142D01*
X66264473Y-72262142D02*
X66150187Y-72433571D01*
X66150187Y-72433571D02*
X66035902Y-72547857D01*
X66035902Y-72547857D02*
X65921616Y-72605000D01*
X64150187Y-76002142D02*
X64150187Y-74802142D01*
X64950187Y-74802142D02*
X65178759Y-74802142D01*
X65178759Y-74802142D02*
X65293044Y-74859285D01*
X65293044Y-74859285D02*
X65407330Y-74973571D01*
X65407330Y-74973571D02*
X65464473Y-75202142D01*
X65464473Y-75202142D02*
X65464473Y-75602142D01*
X65464473Y-75602142D02*
X65407330Y-75830714D01*
X65407330Y-75830714D02*
X65293044Y-75945000D01*
X65293044Y-75945000D02*
X65178759Y-76002142D01*
X65178759Y-76002142D02*
X64950187Y-76002142D01*
X64950187Y-76002142D02*
X64835902Y-75945000D01*
X64835902Y-75945000D02*
X64721616Y-75830714D01*
X64721616Y-75830714D02*
X64664473Y-75602142D01*
X64664473Y-75602142D02*
X64664473Y-75202142D01*
X64664473Y-75202142D02*
X64721616Y-74973571D01*
X64721616Y-74973571D02*
X64835902Y-74859285D01*
X64835902Y-74859285D02*
X64950187Y-74802142D01*
X65921616Y-74916428D02*
X65978759Y-74859285D01*
X65978759Y-74859285D02*
X66093045Y-74802142D01*
X66093045Y-74802142D02*
X66378759Y-74802142D01*
X66378759Y-74802142D02*
X66493045Y-74859285D01*
X66493045Y-74859285D02*
X66550187Y-74916428D01*
X66550187Y-74916428D02*
X66607330Y-75030714D01*
X66607330Y-75030714D02*
X66607330Y-75145000D01*
X66607330Y-75145000D02*
X66550187Y-75316428D01*
X66550187Y-75316428D02*
X65864473Y-76002142D01*
X65864473Y-76002142D02*
X66607330Y-76002142D01*
X101914286Y-50142142D02*
X101914286Y-48942142D01*
X101914286Y-48942142D02*
X102314286Y-49799285D01*
X102314286Y-49799285D02*
X102714286Y-48942142D01*
X102714286Y-48942142D02*
X102714286Y-50142142D01*
X103971429Y-50027857D02*
X103914286Y-50085000D01*
X103914286Y-50085000D02*
X103742858Y-50142142D01*
X103742858Y-50142142D02*
X103628572Y-50142142D01*
X103628572Y-50142142D02*
X103457143Y-50085000D01*
X103457143Y-50085000D02*
X103342858Y-49970714D01*
X103342858Y-49970714D02*
X103285715Y-49856428D01*
X103285715Y-49856428D02*
X103228572Y-49627857D01*
X103228572Y-49627857D02*
X103228572Y-49456428D01*
X103228572Y-49456428D02*
X103285715Y-49227857D01*
X103285715Y-49227857D02*
X103342858Y-49113571D01*
X103342858Y-49113571D02*
X103457143Y-48999285D01*
X103457143Y-48999285D02*
X103628572Y-48942142D01*
X103628572Y-48942142D02*
X103742858Y-48942142D01*
X103742858Y-48942142D02*
X103914286Y-48999285D01*
X103914286Y-48999285D02*
X103971429Y-49056428D01*
X104485715Y-50142142D02*
X104485715Y-48942142D01*
X104485715Y-48942142D02*
X104885715Y-49799285D01*
X104885715Y-49799285D02*
X105285715Y-48942142D01*
X105285715Y-48942142D02*
X105285715Y-50142142D01*
X105857144Y-49685000D02*
X106771430Y-49685000D01*
X107514286Y-49456428D02*
X107400001Y-49399285D01*
X107400001Y-49399285D02*
X107342858Y-49342142D01*
X107342858Y-49342142D02*
X107285715Y-49227857D01*
X107285715Y-49227857D02*
X107285715Y-49170714D01*
X107285715Y-49170714D02*
X107342858Y-49056428D01*
X107342858Y-49056428D02*
X107400001Y-48999285D01*
X107400001Y-48999285D02*
X107514286Y-48942142D01*
X107514286Y-48942142D02*
X107742858Y-48942142D01*
X107742858Y-48942142D02*
X107857144Y-48999285D01*
X107857144Y-48999285D02*
X107914286Y-49056428D01*
X107914286Y-49056428D02*
X107971429Y-49170714D01*
X107971429Y-49170714D02*
X107971429Y-49227857D01*
X107971429Y-49227857D02*
X107914286Y-49342142D01*
X107914286Y-49342142D02*
X107857144Y-49399285D01*
X107857144Y-49399285D02*
X107742858Y-49456428D01*
X107742858Y-49456428D02*
X107514286Y-49456428D01*
X107514286Y-49456428D02*
X107400001Y-49513571D01*
X107400001Y-49513571D02*
X107342858Y-49570714D01*
X107342858Y-49570714D02*
X107285715Y-49685000D01*
X107285715Y-49685000D02*
X107285715Y-49913571D01*
X107285715Y-49913571D02*
X107342858Y-50027857D01*
X107342858Y-50027857D02*
X107400001Y-50085000D01*
X107400001Y-50085000D02*
X107514286Y-50142142D01*
X107514286Y-50142142D02*
X107742858Y-50142142D01*
X107742858Y-50142142D02*
X107857144Y-50085000D01*
X107857144Y-50085000D02*
X107914286Y-50027857D01*
X107914286Y-50027857D02*
X107971429Y-49913571D01*
X107971429Y-49913571D02*
X107971429Y-49685000D01*
X107971429Y-49685000D02*
X107914286Y-49570714D01*
X107914286Y-49570714D02*
X107857144Y-49513571D01*
X107857144Y-49513571D02*
X107742858Y-49456428D01*
X109114286Y-50142142D02*
X108428572Y-50142142D01*
X108771429Y-50142142D02*
X108771429Y-48942142D01*
X108771429Y-48942142D02*
X108657143Y-49113571D01*
X108657143Y-49113571D02*
X108542858Y-49227857D01*
X108542858Y-49227857D02*
X108428572Y-49285000D01*
X109514286Y-48942142D02*
X110257143Y-48942142D01*
X110257143Y-48942142D02*
X109857143Y-49399285D01*
X109857143Y-49399285D02*
X110028572Y-49399285D01*
X110028572Y-49399285D02*
X110142858Y-49456428D01*
X110142858Y-49456428D02*
X110200000Y-49513571D01*
X110200000Y-49513571D02*
X110257143Y-49627857D01*
X110257143Y-49627857D02*
X110257143Y-49913571D01*
X110257143Y-49913571D02*
X110200000Y-50027857D01*
X110200000Y-50027857D02*
X110142858Y-50085000D01*
X110142858Y-50085000D02*
X110028572Y-50142142D01*
X110028572Y-50142142D02*
X109685715Y-50142142D01*
X109685715Y-50142142D02*
X109571429Y-50085000D01*
X109571429Y-50085000D02*
X109514286Y-50027857D01*
X111285715Y-49342142D02*
X111285715Y-50142142D01*
X111000000Y-48885000D02*
X110714286Y-49742142D01*
X110714286Y-49742142D02*
X111457143Y-49742142D01*
X111971429Y-50142142D02*
X112200000Y-50142142D01*
X112200000Y-50142142D02*
X112314286Y-50085000D01*
X112314286Y-50085000D02*
X112371429Y-50027857D01*
X112371429Y-50027857D02*
X112485714Y-49856428D01*
X112485714Y-49856428D02*
X112542857Y-49627857D01*
X112542857Y-49627857D02*
X112542857Y-49170714D01*
X112542857Y-49170714D02*
X112485714Y-49056428D01*
X112485714Y-49056428D02*
X112428572Y-48999285D01*
X112428572Y-48999285D02*
X112314286Y-48942142D01*
X112314286Y-48942142D02*
X112085714Y-48942142D01*
X112085714Y-48942142D02*
X111971429Y-48999285D01*
X111971429Y-48999285D02*
X111914286Y-49056428D01*
X111914286Y-49056428D02*
X111857143Y-49170714D01*
X111857143Y-49170714D02*
X111857143Y-49456428D01*
X111857143Y-49456428D02*
X111914286Y-49570714D01*
X111914286Y-49570714D02*
X111971429Y-49627857D01*
X111971429Y-49627857D02*
X112085714Y-49685000D01*
X112085714Y-49685000D02*
X112314286Y-49685000D01*
X112314286Y-49685000D02*
X112428572Y-49627857D01*
X112428572Y-49627857D02*
X112485714Y-49570714D01*
X112485714Y-49570714D02*
X112542857Y-49456428D01*
X113892669Y-81622142D02*
X113492669Y-81050714D01*
X113206955Y-81622142D02*
X113206955Y-80422142D01*
X113206955Y-80422142D02*
X113664098Y-80422142D01*
X113664098Y-80422142D02*
X113778383Y-80479285D01*
X113778383Y-80479285D02*
X113835526Y-80536428D01*
X113835526Y-80536428D02*
X113892669Y-80650714D01*
X113892669Y-80650714D02*
X113892669Y-80822142D01*
X113892669Y-80822142D02*
X113835526Y-80936428D01*
X113835526Y-80936428D02*
X113778383Y-80993571D01*
X113778383Y-80993571D02*
X113664098Y-81050714D01*
X113664098Y-81050714D02*
X113206955Y-81050714D01*
X114292669Y-80422142D02*
X115092669Y-81622142D01*
X115092669Y-80422142D02*
X114292669Y-81622142D01*
X115549812Y-81622142D02*
X115549812Y-80422142D01*
X115549812Y-80422142D02*
X115835526Y-80422142D01*
X115835526Y-80422142D02*
X116006955Y-80479285D01*
X116006955Y-80479285D02*
X116121240Y-80593571D01*
X116121240Y-80593571D02*
X116178383Y-80707857D01*
X116178383Y-80707857D02*
X116235526Y-80936428D01*
X116235526Y-80936428D02*
X116235526Y-81107857D01*
X116235526Y-81107857D02*
X116178383Y-81336428D01*
X116178383Y-81336428D02*
X116121240Y-81450714D01*
X116121240Y-81450714D02*
X116006955Y-81565000D01*
X116006955Y-81565000D02*
X115835526Y-81622142D01*
X115835526Y-81622142D02*
X115549812Y-81622142D01*
X117606955Y-80365000D02*
X116578383Y-81907857D01*
X117949812Y-81565000D02*
X118121241Y-81622142D01*
X118121241Y-81622142D02*
X118406955Y-81622142D01*
X118406955Y-81622142D02*
X118521241Y-81565000D01*
X118521241Y-81565000D02*
X118578383Y-81507857D01*
X118578383Y-81507857D02*
X118635526Y-81393571D01*
X118635526Y-81393571D02*
X118635526Y-81279285D01*
X118635526Y-81279285D02*
X118578383Y-81165000D01*
X118578383Y-81165000D02*
X118521241Y-81107857D01*
X118521241Y-81107857D02*
X118406955Y-81050714D01*
X118406955Y-81050714D02*
X118178383Y-80993571D01*
X118178383Y-80993571D02*
X118064098Y-80936428D01*
X118064098Y-80936428D02*
X118006955Y-80879285D01*
X118006955Y-80879285D02*
X117949812Y-80765000D01*
X117949812Y-80765000D02*
X117949812Y-80650714D01*
X117949812Y-80650714D02*
X118006955Y-80536428D01*
X118006955Y-80536428D02*
X118064098Y-80479285D01*
X118064098Y-80479285D02*
X118178383Y-80422142D01*
X118178383Y-80422142D02*
X118464098Y-80422142D01*
X118464098Y-80422142D02*
X118635526Y-80479285D01*
X119835526Y-81507857D02*
X119778383Y-81565000D01*
X119778383Y-81565000D02*
X119606955Y-81622142D01*
X119606955Y-81622142D02*
X119492669Y-81622142D01*
X119492669Y-81622142D02*
X119321240Y-81565000D01*
X119321240Y-81565000D02*
X119206955Y-81450714D01*
X119206955Y-81450714D02*
X119149812Y-81336428D01*
X119149812Y-81336428D02*
X119092669Y-81107857D01*
X119092669Y-81107857D02*
X119092669Y-80936428D01*
X119092669Y-80936428D02*
X119149812Y-80707857D01*
X119149812Y-80707857D02*
X119206955Y-80593571D01*
X119206955Y-80593571D02*
X119321240Y-80479285D01*
X119321240Y-80479285D02*
X119492669Y-80422142D01*
X119492669Y-80422142D02*
X119606955Y-80422142D01*
X119606955Y-80422142D02*
X119778383Y-80479285D01*
X119778383Y-80479285D02*
X119835526Y-80536428D01*
X120921240Y-81622142D02*
X120349812Y-81622142D01*
X120349812Y-81622142D02*
X120349812Y-80422142D01*
D11*
X112053289Y-65874428D02*
X112410432Y-67374428D01*
X112410432Y-67374428D02*
X112696146Y-66303000D01*
X112696146Y-66303000D02*
X112981861Y-67374428D01*
X112981861Y-67374428D02*
X113339004Y-65874428D01*
X113053289Y-93523000D02*
X114196147Y-93523000D01*
X113624718Y-94094428D02*
X113624718Y-92951571D01*
D10*
X113264098Y-77882142D02*
X113949813Y-77882142D01*
X113606955Y-79082142D02*
X113606955Y-77882142D01*
X114235527Y-77882142D02*
X115035527Y-79082142D01*
X115035527Y-77882142D02*
X114235527Y-79082142D01*
X115492670Y-79082142D02*
X115492670Y-77882142D01*
X115492670Y-77882142D02*
X115778384Y-77882142D01*
X115778384Y-77882142D02*
X115949813Y-77939285D01*
X115949813Y-77939285D02*
X116064098Y-78053571D01*
X116064098Y-78053571D02*
X116121241Y-78167857D01*
X116121241Y-78167857D02*
X116178384Y-78396428D01*
X116178384Y-78396428D02*
X116178384Y-78567857D01*
X116178384Y-78567857D02*
X116121241Y-78796428D01*
X116121241Y-78796428D02*
X116064098Y-78910714D01*
X116064098Y-78910714D02*
X115949813Y-79025000D01*
X115949813Y-79025000D02*
X115778384Y-79082142D01*
X115778384Y-79082142D02*
X115492670Y-79082142D01*
X117549813Y-77825000D02*
X116521241Y-79367857D01*
X117892670Y-79025000D02*
X118064099Y-79082142D01*
X118064099Y-79082142D02*
X118349813Y-79082142D01*
X118349813Y-79082142D02*
X118464099Y-79025000D01*
X118464099Y-79025000D02*
X118521241Y-78967857D01*
X118521241Y-78967857D02*
X118578384Y-78853571D01*
X118578384Y-78853571D02*
X118578384Y-78739285D01*
X118578384Y-78739285D02*
X118521241Y-78625000D01*
X118521241Y-78625000D02*
X118464099Y-78567857D01*
X118464099Y-78567857D02*
X118349813Y-78510714D01*
X118349813Y-78510714D02*
X118121241Y-78453571D01*
X118121241Y-78453571D02*
X118006956Y-78396428D01*
X118006956Y-78396428D02*
X117949813Y-78339285D01*
X117949813Y-78339285D02*
X117892670Y-78225000D01*
X117892670Y-78225000D02*
X117892670Y-78110714D01*
X117892670Y-78110714D02*
X117949813Y-77996428D01*
X117949813Y-77996428D02*
X118006956Y-77939285D01*
X118006956Y-77939285D02*
X118121241Y-77882142D01*
X118121241Y-77882142D02*
X118406956Y-77882142D01*
X118406956Y-77882142D02*
X118578384Y-77939285D01*
X119092670Y-79082142D02*
X119092670Y-77882142D01*
X119092670Y-77882142D02*
X119378384Y-77882142D01*
X119378384Y-77882142D02*
X119549813Y-77939285D01*
X119549813Y-77939285D02*
X119664098Y-78053571D01*
X119664098Y-78053571D02*
X119721241Y-78167857D01*
X119721241Y-78167857D02*
X119778384Y-78396428D01*
X119778384Y-78396428D02*
X119778384Y-78567857D01*
X119778384Y-78567857D02*
X119721241Y-78796428D01*
X119721241Y-78796428D02*
X119664098Y-78910714D01*
X119664098Y-78910714D02*
X119549813Y-79025000D01*
X119549813Y-79025000D02*
X119378384Y-79082142D01*
X119378384Y-79082142D02*
X119092670Y-79082142D01*
X120235527Y-78739285D02*
X120806956Y-78739285D01*
X120121241Y-79082142D02*
X120521241Y-77882142D01*
X120521241Y-77882142D02*
X120921241Y-79082142D01*
D11*
X112410433Y-60794428D02*
X112910433Y-62294428D01*
X112910433Y-62294428D02*
X113410433Y-60794428D01*
D10*
X62447619Y-95093190D02*
X62352381Y-95045571D01*
X62352381Y-95045571D02*
X62304762Y-94997952D01*
X62304762Y-94997952D02*
X62257143Y-94902714D01*
X62257143Y-94902714D02*
X62257143Y-94855095D01*
X62257143Y-94855095D02*
X62304762Y-94759857D01*
X62304762Y-94759857D02*
X62352381Y-94712238D01*
X62352381Y-94712238D02*
X62447619Y-94664619D01*
X62447619Y-94664619D02*
X62638095Y-94664619D01*
X62638095Y-94664619D02*
X62733333Y-94712238D01*
X62733333Y-94712238D02*
X62780952Y-94759857D01*
X62780952Y-94759857D02*
X62828571Y-94855095D01*
X62828571Y-94855095D02*
X62828571Y-94902714D01*
X62828571Y-94902714D02*
X62780952Y-94997952D01*
X62780952Y-94997952D02*
X62733333Y-95045571D01*
X62733333Y-95045571D02*
X62638095Y-95093190D01*
X62638095Y-95093190D02*
X62447619Y-95093190D01*
X62447619Y-95093190D02*
X62352381Y-95140809D01*
X62352381Y-95140809D02*
X62304762Y-95188428D01*
X62304762Y-95188428D02*
X62257143Y-95283666D01*
X62257143Y-95283666D02*
X62257143Y-95474142D01*
X62257143Y-95474142D02*
X62304762Y-95569380D01*
X62304762Y-95569380D02*
X62352381Y-95617000D01*
X62352381Y-95617000D02*
X62447619Y-95664619D01*
X62447619Y-95664619D02*
X62638095Y-95664619D01*
X62638095Y-95664619D02*
X62733333Y-95617000D01*
X62733333Y-95617000D02*
X62780952Y-95569380D01*
X62780952Y-95569380D02*
X62828571Y-95474142D01*
X62828571Y-95474142D02*
X62828571Y-95283666D01*
X62828571Y-95283666D02*
X62780952Y-95188428D01*
X62780952Y-95188428D02*
X62733333Y-95140809D01*
X62733333Y-95140809D02*
X62638095Y-95093190D01*
X63257143Y-95569380D02*
X63304762Y-95617000D01*
X63304762Y-95617000D02*
X63257143Y-95664619D01*
X63257143Y-95664619D02*
X63209524Y-95617000D01*
X63209524Y-95617000D02*
X63257143Y-95569380D01*
X63257143Y-95569380D02*
X63257143Y-95664619D01*
X63733333Y-95569380D02*
X63780952Y-95617000D01*
X63780952Y-95617000D02*
X63733333Y-95664619D01*
X63733333Y-95664619D02*
X63685714Y-95617000D01*
X63685714Y-95617000D02*
X63733333Y-95569380D01*
X63733333Y-95569380D02*
X63733333Y-95664619D01*
X64638094Y-94997952D02*
X64638094Y-95664619D01*
X64399999Y-94617000D02*
X64161904Y-95331285D01*
X64161904Y-95331285D02*
X64780951Y-95331285D01*
X65304761Y-95093190D02*
X65209523Y-95045571D01*
X65209523Y-95045571D02*
X65161904Y-94997952D01*
X65161904Y-94997952D02*
X65114285Y-94902714D01*
X65114285Y-94902714D02*
X65114285Y-94855095D01*
X65114285Y-94855095D02*
X65161904Y-94759857D01*
X65161904Y-94759857D02*
X65209523Y-94712238D01*
X65209523Y-94712238D02*
X65304761Y-94664619D01*
X65304761Y-94664619D02*
X65495237Y-94664619D01*
X65495237Y-94664619D02*
X65590475Y-94712238D01*
X65590475Y-94712238D02*
X65638094Y-94759857D01*
X65638094Y-94759857D02*
X65685713Y-94855095D01*
X65685713Y-94855095D02*
X65685713Y-94902714D01*
X65685713Y-94902714D02*
X65638094Y-94997952D01*
X65638094Y-94997952D02*
X65590475Y-95045571D01*
X65590475Y-95045571D02*
X65495237Y-95093190D01*
X65495237Y-95093190D02*
X65304761Y-95093190D01*
X65304761Y-95093190D02*
X65209523Y-95140809D01*
X65209523Y-95140809D02*
X65161904Y-95188428D01*
X65161904Y-95188428D02*
X65114285Y-95283666D01*
X65114285Y-95283666D02*
X65114285Y-95474142D01*
X65114285Y-95474142D02*
X65161904Y-95569380D01*
X65161904Y-95569380D02*
X65209523Y-95617000D01*
X65209523Y-95617000D02*
X65304761Y-95664619D01*
X65304761Y-95664619D02*
X65495237Y-95664619D01*
X65495237Y-95664619D02*
X65590475Y-95617000D01*
X65590475Y-95617000D02*
X65638094Y-95569380D01*
X65638094Y-95569380D02*
X65685713Y-95474142D01*
X65685713Y-95474142D02*
X65685713Y-95283666D01*
X65685713Y-95283666D02*
X65638094Y-95188428D01*
X65638094Y-95188428D02*
X65590475Y-95140809D01*
X65590475Y-95140809D02*
X65495237Y-95093190D01*
X65971428Y-94664619D02*
X66304761Y-95664619D01*
X66304761Y-95664619D02*
X66638094Y-94664619D01*
X118292669Y-83019285D02*
X118178384Y-82962142D01*
X118178384Y-82962142D02*
X118006955Y-82962142D01*
X118006955Y-82962142D02*
X117835526Y-83019285D01*
X117835526Y-83019285D02*
X117721241Y-83133571D01*
X117721241Y-83133571D02*
X117664098Y-83247857D01*
X117664098Y-83247857D02*
X117606955Y-83476428D01*
X117606955Y-83476428D02*
X117606955Y-83647857D01*
X117606955Y-83647857D02*
X117664098Y-83876428D01*
X117664098Y-83876428D02*
X117721241Y-83990714D01*
X117721241Y-83990714D02*
X117835526Y-84105000D01*
X117835526Y-84105000D02*
X118006955Y-84162142D01*
X118006955Y-84162142D02*
X118121241Y-84162142D01*
X118121241Y-84162142D02*
X118292669Y-84105000D01*
X118292669Y-84105000D02*
X118349812Y-84047857D01*
X118349812Y-84047857D02*
X118349812Y-83647857D01*
X118349812Y-83647857D02*
X118121241Y-83647857D01*
X118864098Y-84162142D02*
X118864098Y-82962142D01*
X118864098Y-82962142D02*
X119549812Y-84162142D01*
X119549812Y-84162142D02*
X119549812Y-82962142D01*
X120121241Y-84162142D02*
X120121241Y-82962142D01*
X120121241Y-82962142D02*
X120406955Y-82962142D01*
X120406955Y-82962142D02*
X120578384Y-83019285D01*
X120578384Y-83019285D02*
X120692669Y-83133571D01*
X120692669Y-83133571D02*
X120749812Y-83247857D01*
X120749812Y-83247857D02*
X120806955Y-83476428D01*
X120806955Y-83476428D02*
X120806955Y-83647857D01*
X120806955Y-83647857D02*
X120749812Y-83876428D01*
X120749812Y-83876428D02*
X120692669Y-83990714D01*
X120692669Y-83990714D02*
X120578384Y-84105000D01*
X120578384Y-84105000D02*
X120406955Y-84162142D01*
X120406955Y-84162142D02*
X120121241Y-84162142D01*
X63978758Y-69722142D02*
X64378758Y-70922142D01*
X64378758Y-70922142D02*
X64778758Y-69722142D01*
X65178758Y-70922142D02*
X65178758Y-69722142D01*
X65178758Y-69722142D02*
X65464472Y-69722142D01*
X65464472Y-69722142D02*
X65635901Y-69779285D01*
X65635901Y-69779285D02*
X65750186Y-69893571D01*
X65750186Y-69893571D02*
X65807329Y-70007857D01*
X65807329Y-70007857D02*
X65864472Y-70236428D01*
X65864472Y-70236428D02*
X65864472Y-70407857D01*
X65864472Y-70407857D02*
X65807329Y-70636428D01*
X65807329Y-70636428D02*
X65750186Y-70750714D01*
X65750186Y-70750714D02*
X65635901Y-70865000D01*
X65635901Y-70865000D02*
X65464472Y-70922142D01*
X65464472Y-70922142D02*
X65178758Y-70922142D01*
X66378758Y-70922142D02*
X66378758Y-69722142D01*
X66378758Y-69722142D02*
X66664472Y-69722142D01*
X66664472Y-69722142D02*
X66835901Y-69779285D01*
X66835901Y-69779285D02*
X66950186Y-69893571D01*
X66950186Y-69893571D02*
X67007329Y-70007857D01*
X67007329Y-70007857D02*
X67064472Y-70236428D01*
X67064472Y-70236428D02*
X67064472Y-70407857D01*
X67064472Y-70407857D02*
X67007329Y-70636428D01*
X67007329Y-70636428D02*
X66950186Y-70750714D01*
X66950186Y-70750714D02*
X66835901Y-70865000D01*
X66835901Y-70865000D02*
X66664472Y-70922142D01*
X66664472Y-70922142D02*
X66378758Y-70922142D01*
X67521615Y-70579285D02*
X68093044Y-70579285D01*
X67407329Y-70922142D02*
X67807329Y-69722142D01*
X67807329Y-69722142D02*
X68207329Y-70922142D01*
D11*
X113053289Y-98603000D02*
X114196147Y-98603000D01*
D12*
%TO.C,REF\u002A\u002A*%
G36*
X66329339Y-101992414D02*
G01*
X62833777Y-101992414D01*
X62833777Y-101141218D01*
X66329339Y-101141218D01*
X66329339Y-101992414D01*
G37*
G36*
X65309894Y-99410495D02*
G01*
X65315855Y-99410949D01*
X65321729Y-99411695D01*
X65327508Y-99412727D01*
X65333187Y-99414038D01*
X65338756Y-99415620D01*
X65344210Y-99417465D01*
X65349540Y-99419567D01*
X65354739Y-99421917D01*
X65359800Y-99424509D01*
X65364715Y-99427336D01*
X65369477Y-99430389D01*
X65374079Y-99433661D01*
X65378513Y-99437146D01*
X65382772Y-99440835D01*
X65386848Y-99444721D01*
X65390735Y-99448798D01*
X65394424Y-99453057D01*
X65397908Y-99457491D01*
X65401181Y-99462093D01*
X65404234Y-99466855D01*
X65407060Y-99471770D01*
X65409652Y-99476831D01*
X65412003Y-99482030D01*
X65414105Y-99487360D01*
X65415950Y-99492813D01*
X65417532Y-99498383D01*
X65418842Y-99504061D01*
X65419875Y-99509841D01*
X65420621Y-99515715D01*
X65421074Y-99521675D01*
X65421227Y-99527715D01*
X65421074Y-99533755D01*
X65420621Y-99539715D01*
X65419875Y-99545589D01*
X65418842Y-99551368D01*
X65417532Y-99557046D01*
X65415950Y-99562616D01*
X65414105Y-99568069D01*
X65412003Y-99573399D01*
X65409652Y-99578597D01*
X65407060Y-99583658D01*
X65404234Y-99588573D01*
X65401181Y-99593334D01*
X65397908Y-99597936D01*
X65394424Y-99602369D01*
X65390735Y-99606628D01*
X65386848Y-99610703D01*
X65382772Y-99614589D01*
X65378513Y-99618278D01*
X65374079Y-99621762D01*
X65369477Y-99625034D01*
X65364715Y-99628087D01*
X65359800Y-99630913D01*
X65354739Y-99633504D01*
X65349540Y-99635855D01*
X65344210Y-99637956D01*
X65338756Y-99639801D01*
X65333187Y-99641383D01*
X65327508Y-99642693D01*
X65321729Y-99643725D01*
X65315855Y-99644471D01*
X65309894Y-99644925D01*
X65303855Y-99645077D01*
X65297815Y-99644925D01*
X65291855Y-99644471D01*
X65285981Y-99643725D01*
X65280201Y-99642693D01*
X65274523Y-99641383D01*
X65268953Y-99639801D01*
X65263500Y-99637956D01*
X65258170Y-99635855D01*
X65252970Y-99633504D01*
X65247910Y-99630913D01*
X65242994Y-99628087D01*
X65238232Y-99625034D01*
X65233630Y-99621762D01*
X65229196Y-99618278D01*
X65224937Y-99614589D01*
X65220861Y-99610703D01*
X65216975Y-99606628D01*
X65213285Y-99602369D01*
X65209801Y-99597936D01*
X65206528Y-99593334D01*
X65203475Y-99588572D01*
X65200649Y-99583658D01*
X65198057Y-99578597D01*
X65195706Y-99573399D01*
X65193605Y-99568069D01*
X65191759Y-99562616D01*
X65190178Y-99557046D01*
X65188867Y-99551368D01*
X65187835Y-99545589D01*
X65187088Y-99539715D01*
X65186635Y-99533755D01*
X65186482Y-99527715D01*
X65186635Y-99521676D01*
X65187088Y-99515715D01*
X65187835Y-99509841D01*
X65188867Y-99504062D01*
X65190178Y-99498383D01*
X65191759Y-99492814D01*
X65193605Y-99487360D01*
X65195706Y-99482030D01*
X65198057Y-99476831D01*
X65200649Y-99471770D01*
X65203475Y-99466855D01*
X65206528Y-99462093D01*
X65209801Y-99457491D01*
X65213285Y-99453057D01*
X65216975Y-99448798D01*
X65220861Y-99444722D01*
X65224937Y-99440835D01*
X65229196Y-99437146D01*
X65233630Y-99433661D01*
X65238232Y-99430389D01*
X65242994Y-99427336D01*
X65247910Y-99424510D01*
X65252970Y-99421917D01*
X65258170Y-99419567D01*
X65263500Y-99417465D01*
X65268953Y-99415620D01*
X65274523Y-99414038D01*
X65280201Y-99412727D01*
X65285981Y-99411695D01*
X65291855Y-99410949D01*
X65297815Y-99410495D01*
X65303855Y-99410343D01*
X65309894Y-99410495D01*
G37*
G36*
X66720808Y-96127235D02*
G01*
X65797785Y-97067430D01*
X65816999Y-97067430D01*
X65816999Y-97488117D01*
X65542209Y-97488117D01*
X65395478Y-99062478D01*
X66480875Y-100205587D01*
X66408868Y-100273925D01*
X65646551Y-99469773D01*
X65647664Y-99476862D01*
X65648634Y-99483998D01*
X65649459Y-99491180D01*
X65650138Y-99498405D01*
X65650669Y-99505672D01*
X65651050Y-99512981D01*
X65651280Y-99520329D01*
X65651357Y-99527715D01*
X65650905Y-99545598D01*
X65649563Y-99563246D01*
X65647353Y-99580637D01*
X65644297Y-99597750D01*
X65640417Y-99614562D01*
X65635734Y-99631052D01*
X65630271Y-99647198D01*
X65624049Y-99662979D01*
X65617090Y-99678371D01*
X65609416Y-99693355D01*
X65601049Y-99707907D01*
X65592010Y-99722005D01*
X65582322Y-99735629D01*
X65572006Y-99748756D01*
X65561084Y-99761365D01*
X65549578Y-99773433D01*
X65537510Y-99784938D01*
X65524902Y-99795860D01*
X65511774Y-99806176D01*
X65498150Y-99815864D01*
X65484052Y-99824902D01*
X65469500Y-99833269D01*
X65454516Y-99840942D01*
X65439124Y-99847901D01*
X65423344Y-99854123D01*
X65407198Y-99859586D01*
X65390708Y-99864268D01*
X65373896Y-99868148D01*
X65356784Y-99871204D01*
X65339393Y-99873413D01*
X65321746Y-99874755D01*
X65303864Y-99875207D01*
X65279092Y-99874338D01*
X65254788Y-99871769D01*
X65231012Y-99867559D01*
X65207821Y-99861766D01*
X65185276Y-99854449D01*
X65163433Y-99845666D01*
X65142352Y-99835475D01*
X65122091Y-99823936D01*
X65102709Y-99811106D01*
X65084264Y-99797045D01*
X65066814Y-99781810D01*
X65050419Y-99765460D01*
X65035136Y-99748054D01*
X65021024Y-99729649D01*
X65008143Y-99710305D01*
X64996549Y-99690080D01*
X64146771Y-99690080D01*
X64146771Y-99871608D01*
X63923196Y-99871608D01*
X63923196Y-99689617D01*
X63920746Y-99689211D01*
X63918305Y-99688684D01*
X63915879Y-99688039D01*
X63913471Y-99687282D01*
X63911085Y-99686415D01*
X63908726Y-99685442D01*
X63906396Y-99684366D01*
X63904101Y-99683192D01*
X63899629Y-99680563D01*
X63895342Y-99677582D01*
X63891272Y-99674280D01*
X63887450Y-99670687D01*
X63883909Y-99666830D01*
X63880680Y-99662739D01*
X63877795Y-99658445D01*
X63876492Y-99656230D01*
X63875287Y-99653975D01*
X63874184Y-99651684D01*
X63873188Y-99649360D01*
X63872301Y-99647007D01*
X63871528Y-99644628D01*
X63870874Y-99642228D01*
X63870341Y-99639809D01*
X63869934Y-99637377D01*
X63869658Y-99634933D01*
X63821921Y-99080073D01*
X62637530Y-100286503D01*
X62566728Y-100216928D01*
X63795348Y-98966662D01*
X63933250Y-98966662D01*
X63985100Y-99569440D01*
X64958826Y-99569440D01*
X64958252Y-99564297D01*
X64957752Y-99559133D01*
X64957327Y-99553946D01*
X64956978Y-99548740D01*
X64956706Y-99543512D01*
X64956510Y-99538265D01*
X64956392Y-99533000D01*
X64956352Y-99527715D01*
X65123131Y-99527715D01*
X65123366Y-99537015D01*
X65124064Y-99546193D01*
X65125213Y-99555237D01*
X65126802Y-99564136D01*
X65128820Y-99572880D01*
X65131255Y-99581456D01*
X65134096Y-99589853D01*
X65137332Y-99598060D01*
X65140951Y-99606065D01*
X65144942Y-99613857D01*
X65149293Y-99621425D01*
X65153994Y-99628758D01*
X65159032Y-99635844D01*
X65164397Y-99642671D01*
X65170077Y-99649228D01*
X65176061Y-99655505D01*
X65182337Y-99661489D01*
X65188895Y-99667169D01*
X65195722Y-99672534D01*
X65202807Y-99677573D01*
X65210140Y-99682274D01*
X65217708Y-99686626D01*
X65225500Y-99690617D01*
X65233506Y-99694236D01*
X65241713Y-99697472D01*
X65250110Y-99700313D01*
X65258686Y-99702749D01*
X65267430Y-99704767D01*
X65276330Y-99706356D01*
X65285375Y-99707506D01*
X65294554Y-99708204D01*
X65303854Y-99708439D01*
X65313154Y-99708204D01*
X65322332Y-99707506D01*
X65331376Y-99706356D01*
X65340276Y-99704767D01*
X65349019Y-99702749D01*
X65357595Y-99700313D01*
X65365992Y-99697472D01*
X65374199Y-99694236D01*
X65382204Y-99690617D01*
X65389997Y-99686626D01*
X65397565Y-99682274D01*
X65404897Y-99677573D01*
X65411983Y-99672534D01*
X65418810Y-99667169D01*
X65425368Y-99661489D01*
X65431644Y-99655505D01*
X65437628Y-99649228D01*
X65443309Y-99642671D01*
X65448674Y-99635844D01*
X65453712Y-99628758D01*
X65458413Y-99621425D01*
X65462765Y-99613857D01*
X65466756Y-99606065D01*
X65470375Y-99598060D01*
X65473611Y-99589853D01*
X65476453Y-99581456D01*
X65478888Y-99572880D01*
X65480906Y-99564136D01*
X65482496Y-99555237D01*
X65483645Y-99546193D01*
X65484343Y-99537015D01*
X65484578Y-99527715D01*
X65484343Y-99518415D01*
X65483645Y-99509236D01*
X65482496Y-99500191D01*
X65480906Y-99491291D01*
X65478888Y-99482547D01*
X65476453Y-99473971D01*
X65473611Y-99465574D01*
X65470375Y-99457366D01*
X65466756Y-99449361D01*
X65462765Y-99441568D01*
X65458413Y-99434000D01*
X65453712Y-99426668D01*
X65448674Y-99419582D01*
X65443309Y-99412755D01*
X65437628Y-99406198D01*
X65431644Y-99399922D01*
X65425368Y-99393938D01*
X65418810Y-99388258D01*
X65411983Y-99382893D01*
X65404897Y-99377854D01*
X65397565Y-99373154D01*
X65389997Y-99368802D01*
X65382204Y-99364812D01*
X65374199Y-99361193D01*
X65365992Y-99357957D01*
X65357595Y-99355116D01*
X65349019Y-99352681D01*
X65340276Y-99350663D01*
X65331376Y-99349074D01*
X65322332Y-99347924D01*
X65313154Y-99347226D01*
X65303854Y-99346991D01*
X65294554Y-99347226D01*
X65285375Y-99347924D01*
X65276331Y-99349074D01*
X65267430Y-99350663D01*
X65258687Y-99352681D01*
X65250110Y-99355116D01*
X65241713Y-99357957D01*
X65233506Y-99361193D01*
X65225500Y-99364812D01*
X65217708Y-99368802D01*
X65210140Y-99373154D01*
X65202807Y-99377854D01*
X65195722Y-99382893D01*
X65188895Y-99388258D01*
X65182337Y-99393938D01*
X65176061Y-99399922D01*
X65170077Y-99406198D01*
X65164397Y-99412755D01*
X65159032Y-99419582D01*
X65153994Y-99426668D01*
X65149293Y-99434000D01*
X65144942Y-99441568D01*
X65140951Y-99449361D01*
X65137332Y-99457366D01*
X65134096Y-99465574D01*
X65131255Y-99473971D01*
X65128820Y-99482547D01*
X65126802Y-99491291D01*
X65125213Y-99500191D01*
X65124064Y-99509236D01*
X65123366Y-99518415D01*
X65123131Y-99527715D01*
X64956352Y-99527715D01*
X64956742Y-99511109D01*
X64957900Y-99494704D01*
X64959808Y-99478517D01*
X64962449Y-99462567D01*
X64965806Y-99446869D01*
X64969860Y-99431442D01*
X64974595Y-99416304D01*
X64979994Y-99401471D01*
X64986038Y-99386961D01*
X64992710Y-99372792D01*
X64999993Y-99358980D01*
X65007869Y-99345545D01*
X65016321Y-99332502D01*
X65025332Y-99319870D01*
X65034883Y-99307665D01*
X65044958Y-99295906D01*
X65055539Y-99284610D01*
X65066609Y-99273794D01*
X65078150Y-99263476D01*
X65090144Y-99253673D01*
X65102574Y-99244402D01*
X65115424Y-99235682D01*
X65128674Y-99227529D01*
X65142308Y-99219961D01*
X65156309Y-99212996D01*
X65170658Y-99206651D01*
X65185339Y-99200943D01*
X65200334Y-99195890D01*
X65215626Y-99191509D01*
X65231196Y-99187818D01*
X65247029Y-99184835D01*
X65263105Y-99182576D01*
X65273059Y-99075790D01*
X64562239Y-98325971D01*
X63933250Y-98966662D01*
X63795348Y-98966662D01*
X63810811Y-98950928D01*
X63688783Y-97532325D01*
X63809876Y-97532325D01*
X63922161Y-98837617D01*
X64493077Y-98256637D01*
X64630306Y-98256637D01*
X65285124Y-98946273D01*
X65421016Y-97488117D01*
X65407613Y-97488117D01*
X65407613Y-97464852D01*
X64630306Y-98256637D01*
X64493077Y-98256637D01*
X64494826Y-98254857D01*
X63809876Y-97532325D01*
X63688783Y-97532325D01*
X63676698Y-97391838D01*
X62493162Y-96143362D01*
X62493162Y-96005871D01*
X63663497Y-97238432D01*
X63633091Y-96884957D01*
X63754186Y-96884957D01*
X63796654Y-97378667D01*
X64562862Y-98185615D01*
X65016074Y-97724430D01*
X64377112Y-97724430D01*
X64377112Y-97483130D01*
X65116103Y-97483130D01*
X65116103Y-97622632D01*
X65354902Y-97379632D01*
X65552303Y-97379632D01*
X65711411Y-97379632D01*
X65711411Y-97175935D01*
X65691272Y-97175935D01*
X65558707Y-97310962D01*
X65552303Y-97379632D01*
X65354902Y-97379632D01*
X65407613Y-97325993D01*
X65407613Y-97067451D01*
X65460217Y-97067451D01*
X65477218Y-96884957D01*
X63754186Y-96884957D01*
X63633091Y-96884957D01*
X63632661Y-96879960D01*
X63487318Y-96879960D01*
X63487318Y-96759310D01*
X63615197Y-96759310D01*
X64070490Y-96759310D01*
X65472483Y-96759310D01*
X65466864Y-96747341D01*
X65460344Y-96735769D01*
X65452951Y-96724589D01*
X65444715Y-96713794D01*
X65435665Y-96703377D01*
X65425829Y-96693332D01*
X65415238Y-96683652D01*
X65403921Y-96674330D01*
X65391906Y-96665360D01*
X65379224Y-96656736D01*
X65365903Y-96648451D01*
X65351973Y-96640498D01*
X65322400Y-96625564D01*
X65290741Y-96611880D01*
X65257229Y-96599394D01*
X65222098Y-96588055D01*
X65185583Y-96577809D01*
X65147916Y-96568604D01*
X65109332Y-96560387D01*
X65070064Y-96553107D01*
X65030348Y-96546710D01*
X64990426Y-96541146D01*
X64990426Y-96653752D01*
X64397240Y-96653752D01*
X64397240Y-96533102D01*
X64397240Y-96528457D01*
X64357367Y-96531714D01*
X64316719Y-96535631D01*
X64275545Y-96540258D01*
X64234095Y-96545644D01*
X64192615Y-96551842D01*
X64151356Y-96558900D01*
X64110564Y-96566870D01*
X64070490Y-96575802D01*
X64070490Y-96759310D01*
X63615197Y-96759310D01*
X63615200Y-96759300D01*
X63744192Y-96759300D01*
X63864319Y-96759300D01*
X63864319Y-96649519D01*
X63854255Y-96655142D01*
X63844485Y-96660921D01*
X63835019Y-96666857D01*
X63825867Y-96672953D01*
X63817039Y-96679210D01*
X63808546Y-96685631D01*
X63800396Y-96692218D01*
X63792601Y-96698973D01*
X63785171Y-96705897D01*
X63778114Y-96712994D01*
X63771441Y-96720265D01*
X63765163Y-96727711D01*
X63759289Y-96735336D01*
X63753829Y-96743141D01*
X63748793Y-96751129D01*
X63744192Y-96759300D01*
X63615200Y-96759300D01*
X63616056Y-96756716D01*
X63616985Y-96754017D01*
X63617986Y-96751215D01*
X63619060Y-96748314D01*
X63620211Y-96745315D01*
X63621441Y-96742222D01*
X63622751Y-96739038D01*
X63624145Y-96735763D01*
X63632643Y-96717663D01*
X63642168Y-96700207D01*
X63652687Y-96683386D01*
X63664165Y-96667187D01*
X63676569Y-96651599D01*
X63689864Y-96636612D01*
X63704016Y-96622214D01*
X63718991Y-96608392D01*
X63734755Y-96595137D01*
X63751274Y-96582436D01*
X63760683Y-96575802D01*
X63768514Y-96570279D01*
X63786440Y-96558654D01*
X63805019Y-96547549D01*
X63824216Y-96536954D01*
X63843997Y-96526857D01*
X63864329Y-96517246D01*
X63864329Y-96477784D01*
X64517870Y-96477784D01*
X64517870Y-96533102D01*
X64869756Y-96533102D01*
X64869756Y-96477784D01*
X64517870Y-96477784D01*
X63864329Y-96477784D01*
X63864329Y-96437507D01*
X64070490Y-96437507D01*
X64070490Y-96449843D01*
X64111029Y-96441106D01*
X64151982Y-96433370D01*
X64193185Y-96426580D01*
X64234476Y-96420682D01*
X64275690Y-96415622D01*
X64316664Y-96411345D01*
X64357235Y-96407796D01*
X64397240Y-96404921D01*
X64397240Y-96357144D01*
X64990426Y-96357144D01*
X64990426Y-96418295D01*
X65070683Y-96429867D01*
X65110604Y-96436957D01*
X65150157Y-96444986D01*
X65189173Y-96454006D01*
X65227483Y-96464072D01*
X65264918Y-96475236D01*
X65301310Y-96487550D01*
X65336488Y-96501068D01*
X65370283Y-96515842D01*
X65402527Y-96531926D01*
X65433051Y-96549371D01*
X65461685Y-96568232D01*
X65488260Y-96588561D01*
X65512607Y-96610411D01*
X65534557Y-96633834D01*
X65540267Y-96626964D01*
X65546344Y-96620424D01*
X65552772Y-96614229D01*
X65559535Y-96608395D01*
X65566617Y-96602938D01*
X65574003Y-96597874D01*
X65581678Y-96593217D01*
X65589625Y-96588984D01*
X65597830Y-96585190D01*
X65606275Y-96581852D01*
X65614946Y-96578984D01*
X65623828Y-96576602D01*
X65632903Y-96574723D01*
X65642157Y-96573361D01*
X65651575Y-96572532D01*
X65661139Y-96572253D01*
X65669418Y-96572462D01*
X65677588Y-96573083D01*
X65685639Y-96574106D01*
X65693561Y-96575521D01*
X65701344Y-96577317D01*
X65708978Y-96579484D01*
X65716452Y-96582013D01*
X65723758Y-96584894D01*
X65730884Y-96588115D01*
X65737820Y-96591667D01*
X65744557Y-96595541D01*
X65751083Y-96599725D01*
X65757390Y-96604210D01*
X65763467Y-96608985D01*
X65769304Y-96614041D01*
X65774891Y-96619368D01*
X65780217Y-96624954D01*
X65785273Y-96630791D01*
X65790049Y-96636868D01*
X65794534Y-96643175D01*
X65798718Y-96649702D01*
X65802591Y-96656439D01*
X65806144Y-96663375D01*
X65809365Y-96670501D01*
X65812245Y-96677806D01*
X65814774Y-96685281D01*
X65816942Y-96692915D01*
X65818738Y-96700698D01*
X65820153Y-96708620D01*
X65821176Y-96716671D01*
X65821797Y-96724841D01*
X65822006Y-96733119D01*
X65821797Y-96741397D01*
X65821176Y-96749566D01*
X65820153Y-96757616D01*
X65818738Y-96765538D01*
X65816942Y-96773320D01*
X65814774Y-96780954D01*
X65812245Y-96788428D01*
X65809365Y-96795733D01*
X65806144Y-96802859D01*
X65802591Y-96809795D01*
X65798718Y-96816532D01*
X65794534Y-96823059D01*
X65790049Y-96829366D01*
X65785273Y-96835443D01*
X65780217Y-96841280D01*
X65774891Y-96846867D01*
X65769304Y-96852194D01*
X65763467Y-96857250D01*
X65757390Y-96862026D01*
X65751083Y-96866511D01*
X65744557Y-96870695D01*
X65737820Y-96874569D01*
X65730884Y-96878122D01*
X65723758Y-96881343D01*
X65716452Y-96884224D01*
X65708978Y-96886753D01*
X65701344Y-96888921D01*
X65693561Y-96890717D01*
X65685639Y-96892132D01*
X65677588Y-96893155D01*
X65669418Y-96893777D01*
X65661139Y-96893986D01*
X65657004Y-96893934D01*
X65652895Y-96893778D01*
X65648812Y-96893521D01*
X65644758Y-96893162D01*
X65640732Y-96892704D01*
X65636738Y-96892147D01*
X65632775Y-96891493D01*
X65628845Y-96890743D01*
X65624950Y-96889899D01*
X65621091Y-96888961D01*
X65617268Y-96887930D01*
X65613484Y-96886809D01*
X65609739Y-96885598D01*
X65606034Y-96884298D01*
X65602372Y-96882911D01*
X65598753Y-96881438D01*
X65581410Y-97067440D01*
X65661702Y-97067440D01*
X66720808Y-95989674D01*
X66720808Y-96127235D01*
G37*
D13*
X71387528Y-52034619D02*
X71398908Y-52053693D01*
X71424488Y-52097421D01*
X71463002Y-52163619D01*
X71513186Y-52250102D01*
X71573775Y-52354685D01*
X71643503Y-52475183D01*
X71721107Y-52609412D01*
X71805320Y-52755187D01*
X71894879Y-52910323D01*
X71986998Y-53070000D01*
X72081076Y-53233117D01*
X72171402Y-53389709D01*
X72256665Y-53537506D01*
X72335557Y-53674240D01*
X72406769Y-53797642D01*
X72468991Y-53905444D01*
X72520913Y-53995377D01*
X72561228Y-54065173D01*
X72588624Y-54112564D01*
X72601507Y-54134786D01*
X72622507Y-54172330D01*
X72633925Y-54195831D01*
X72634551Y-54199920D01*
X72620636Y-54192242D01*
X72581941Y-54170203D01*
X72520487Y-54134971D01*
X72438298Y-54087711D01*
X72337396Y-54029589D01*
X72219805Y-53961771D01*
X72087546Y-53885424D01*
X71942642Y-53801714D01*
X71787117Y-53711806D01*
X71622992Y-53616867D01*
X71560549Y-53580732D01*
X71393487Y-53484083D01*
X71234074Y-53391938D01*
X71084355Y-53305475D01*
X70946376Y-53225871D01*
X70822185Y-53154305D01*
X70713827Y-53091955D01*
X70623348Y-53039998D01*
X70552796Y-52999613D01*
X70504215Y-52971978D01*
X70479654Y-52958272D01*
X70477085Y-52956974D01*
X70484569Y-52945220D01*
X70510614Y-52913795D01*
X70552559Y-52865594D01*
X70607746Y-52803510D01*
X70673517Y-52730439D01*
X70747212Y-52649276D01*
X70826173Y-52562916D01*
X70907740Y-52474253D01*
X70989254Y-52386182D01*
X71068057Y-52301599D01*
X71141490Y-52223397D01*
X71206893Y-52154472D01*
X71261608Y-52097719D01*
X71302977Y-52056032D01*
X71317164Y-52042363D01*
X71364180Y-51998201D01*
X71387528Y-52034619D01*
G36*
X71387528Y-52034619D02*
G01*
X71398908Y-52053693D01*
X71424488Y-52097421D01*
X71463002Y-52163619D01*
X71513186Y-52250102D01*
X71573775Y-52354685D01*
X71643503Y-52475183D01*
X71721107Y-52609412D01*
X71805320Y-52755187D01*
X71894879Y-52910323D01*
X71986998Y-53070000D01*
X72081076Y-53233117D01*
X72171402Y-53389709D01*
X72256665Y-53537506D01*
X72335557Y-53674240D01*
X72406769Y-53797642D01*
X72468991Y-53905444D01*
X72520913Y-53995377D01*
X72561228Y-54065173D01*
X72588624Y-54112564D01*
X72601507Y-54134786D01*
X72622507Y-54172330D01*
X72633925Y-54195831D01*
X72634551Y-54199920D01*
X72620636Y-54192242D01*
X72581941Y-54170203D01*
X72520487Y-54134971D01*
X72438298Y-54087711D01*
X72337396Y-54029589D01*
X72219805Y-53961771D01*
X72087546Y-53885424D01*
X71942642Y-53801714D01*
X71787117Y-53711806D01*
X71622992Y-53616867D01*
X71560549Y-53580732D01*
X71393487Y-53484083D01*
X71234074Y-53391938D01*
X71084355Y-53305475D01*
X70946376Y-53225871D01*
X70822185Y-53154305D01*
X70713827Y-53091955D01*
X70623348Y-53039998D01*
X70552796Y-52999613D01*
X70504215Y-52971978D01*
X70479654Y-52958272D01*
X70477085Y-52956974D01*
X70484569Y-52945220D01*
X70510614Y-52913795D01*
X70552559Y-52865594D01*
X70607746Y-52803510D01*
X70673517Y-52730439D01*
X70747212Y-52649276D01*
X70826173Y-52562916D01*
X70907740Y-52474253D01*
X70989254Y-52386182D01*
X71068057Y-52301599D01*
X71141490Y-52223397D01*
X71206893Y-52154472D01*
X71261608Y-52097719D01*
X71302977Y-52056032D01*
X71317164Y-52042363D01*
X71364180Y-51998201D01*
X71387528Y-52034619D01*
G37*
X69564043Y-48885835D02*
X69587065Y-48923245D01*
X69622534Y-48982514D01*
X69668996Y-49061118D01*
X69724996Y-49156538D01*
X69789081Y-49266250D01*
X69859796Y-49387734D01*
X69935687Y-49518468D01*
X70015299Y-49655930D01*
X70097178Y-49797598D01*
X70179870Y-49940951D01*
X70261921Y-50083467D01*
X70341876Y-50222624D01*
X70418281Y-50355901D01*
X70489682Y-50480776D01*
X70554624Y-50594727D01*
X70611653Y-50695233D01*
X70659315Y-50779772D01*
X70696155Y-50845822D01*
X70720720Y-50890862D01*
X70731554Y-50912370D01*
X70731951Y-50913714D01*
X70718501Y-50931965D01*
X70681114Y-50959882D01*
X70624235Y-50994725D01*
X70552312Y-51033754D01*
X70477015Y-51070843D01*
X70374560Y-51115817D01*
X70266817Y-51156226D01*
X70150073Y-51192969D01*
X70020618Y-51226942D01*
X69874740Y-51259044D01*
X69708726Y-51290173D01*
X69518866Y-51321227D01*
X69322469Y-51350145D01*
X69151834Y-51375800D01*
X69008545Y-51401198D01*
X68889008Y-51427602D01*
X68789630Y-51456273D01*
X68706818Y-51488473D01*
X68636978Y-51525465D01*
X68576518Y-51568512D01*
X68521845Y-51618875D01*
X68504214Y-51637583D01*
X68466000Y-51681139D01*
X68437732Y-51716682D01*
X68424618Y-51737583D01*
X68424268Y-51739297D01*
X68419680Y-51749806D01*
X68403758Y-51749924D01*
X68373266Y-51738254D01*
X68324968Y-51713396D01*
X68255627Y-51673952D01*
X68207439Y-51645587D01*
X68135583Y-51601247D01*
X68079742Y-51563279D01*
X68043667Y-51534416D01*
X68031113Y-51517388D01*
X68031121Y-51517264D01*
X68038906Y-51501037D01*
X68060892Y-51460400D01*
X68095803Y-51397567D01*
X68142363Y-51314752D01*
X68199295Y-51214172D01*
X68265323Y-51098040D01*
X68339172Y-50968571D01*
X68419564Y-50827980D01*
X68505224Y-50678482D01*
X68594876Y-50522292D01*
X68687243Y-50361624D01*
X68781049Y-50198693D01*
X68875018Y-50035713D01*
X68967874Y-49874900D01*
X69058340Y-49718468D01*
X69145141Y-49568633D01*
X69227000Y-49427608D01*
X69302641Y-49297609D01*
X69370787Y-49180849D01*
X69430163Y-49079545D01*
X69479493Y-48995911D01*
X69517500Y-48932162D01*
X69542907Y-48890511D01*
X69554440Y-48873175D01*
X69554923Y-48872805D01*
X69564043Y-48885835D01*
G36*
X69564043Y-48885835D02*
G01*
X69587065Y-48923245D01*
X69622534Y-48982514D01*
X69668996Y-49061118D01*
X69724996Y-49156538D01*
X69789081Y-49266250D01*
X69859796Y-49387734D01*
X69935687Y-49518468D01*
X70015299Y-49655930D01*
X70097178Y-49797598D01*
X70179870Y-49940951D01*
X70261921Y-50083467D01*
X70341876Y-50222624D01*
X70418281Y-50355901D01*
X70489682Y-50480776D01*
X70554624Y-50594727D01*
X70611653Y-50695233D01*
X70659315Y-50779772D01*
X70696155Y-50845822D01*
X70720720Y-50890862D01*
X70731554Y-50912370D01*
X70731951Y-50913714D01*
X70718501Y-50931965D01*
X70681114Y-50959882D01*
X70624235Y-50994725D01*
X70552312Y-51033754D01*
X70477015Y-51070843D01*
X70374560Y-51115817D01*
X70266817Y-51156226D01*
X70150073Y-51192969D01*
X70020618Y-51226942D01*
X69874740Y-51259044D01*
X69708726Y-51290173D01*
X69518866Y-51321227D01*
X69322469Y-51350145D01*
X69151834Y-51375800D01*
X69008545Y-51401198D01*
X68889008Y-51427602D01*
X68789630Y-51456273D01*
X68706818Y-51488473D01*
X68636978Y-51525465D01*
X68576518Y-51568512D01*
X68521845Y-51618875D01*
X68504214Y-51637583D01*
X68466000Y-51681139D01*
X68437732Y-51716682D01*
X68424618Y-51737583D01*
X68424268Y-51739297D01*
X68419680Y-51749806D01*
X68403758Y-51749924D01*
X68373266Y-51738254D01*
X68324968Y-51713396D01*
X68255627Y-51673952D01*
X68207439Y-51645587D01*
X68135583Y-51601247D01*
X68079742Y-51563279D01*
X68043667Y-51534416D01*
X68031113Y-51517388D01*
X68031121Y-51517264D01*
X68038906Y-51501037D01*
X68060892Y-51460400D01*
X68095803Y-51397567D01*
X68142363Y-51314752D01*
X68199295Y-51214172D01*
X68265323Y-51098040D01*
X68339172Y-50968571D01*
X68419564Y-50827980D01*
X68505224Y-50678482D01*
X68594876Y-50522292D01*
X68687243Y-50361624D01*
X68781049Y-50198693D01*
X68875018Y-50035713D01*
X68967874Y-49874900D01*
X69058340Y-49718468D01*
X69145141Y-49568633D01*
X69227000Y-49427608D01*
X69302641Y-49297609D01*
X69370787Y-49180849D01*
X69430163Y-49079545D01*
X69479493Y-48995911D01*
X69517500Y-48932162D01*
X69542907Y-48890511D01*
X69554440Y-48873175D01*
X69554923Y-48872805D01*
X69564043Y-48885835D01*
G37*
X67722094Y-52091158D02*
X67754619Y-52103736D01*
X67804193Y-52128712D01*
X67875374Y-52167876D01*
X67880916Y-52170988D01*
X67946474Y-52208476D01*
X68001798Y-52241319D01*
X68041455Y-52266205D01*
X68060012Y-52279820D01*
X68060531Y-52280487D01*
X68056048Y-52299390D01*
X68035486Y-52341605D01*
X68000183Y-52404832D01*
X67951480Y-52486772D01*
X67890718Y-52585122D01*
X67819236Y-52697585D01*
X67801445Y-52725165D01*
X67755093Y-52801699D01*
X67721342Y-52867556D01*
X67703153Y-52916782D01*
X67701286Y-52926507D01*
X67702115Y-52969312D01*
X67711394Y-53037209D01*
X67727968Y-53125843D01*
X67750680Y-53230859D01*
X67778373Y-53347902D01*
X67809890Y-53472616D01*
X67844075Y-53600645D01*
X67879771Y-53727634D01*
X67915821Y-53849228D01*
X67951068Y-53961072D01*
X67984356Y-54058810D01*
X68014528Y-54138087D01*
X68035561Y-54185122D01*
X68060337Y-54235225D01*
X68083730Y-54283168D01*
X68084997Y-54285793D01*
X68123699Y-54334220D01*
X68180184Y-54366828D01*
X68245939Y-54382454D01*
X68312451Y-54379937D01*
X68371205Y-54358114D01*
X68404258Y-54329382D01*
X68451859Y-54250583D01*
X68486739Y-54152378D01*
X68505877Y-54044779D01*
X68508588Y-53983780D01*
X68497670Y-53869935D01*
X68465624Y-53775660D01*
X68410726Y-53696379D01*
X68393607Y-53678733D01*
X68342661Y-53629235D01*
X68339163Y-53279362D01*
X68335664Y-52929489D01*
X68424818Y-52794531D01*
X68466654Y-52733445D01*
X68506945Y-52678493D01*
X68539943Y-52637336D01*
X68554126Y-52622192D01*
X68594281Y-52584810D01*
X68648665Y-52614098D01*
X68683039Y-52635084D01*
X68701846Y-52651378D01*
X68703049Y-52654307D01*
X68715903Y-52666728D01*
X68737896Y-52675977D01*
X68759150Y-52684313D01*
X68791694Y-52700149D01*
X68838322Y-52725033D01*
X68901829Y-52760509D01*
X68985008Y-52808123D01*
X69090653Y-52869422D01*
X69148062Y-52902932D01*
X69215594Y-52943071D01*
X69259885Y-52971659D01*
X69284855Y-52992039D01*
X69294423Y-53007553D01*
X69292508Y-53021546D01*
X69290911Y-53024796D01*
X69275376Y-53045266D01*
X69242136Y-53083665D01*
X69195062Y-53135696D01*
X69138028Y-53197066D01*
X69088700Y-53249090D01*
X68975030Y-53372567D01*
X68886105Y-53479591D01*
X68821134Y-53571240D01*
X68779321Y-53648588D01*
X68765217Y-53687866D01*
X68759392Y-53722249D01*
X68753375Y-53780899D01*
X68747696Y-53857117D01*
X68742884Y-53944202D01*
X68740619Y-53999268D01*
X68737459Y-54094464D01*
X68736069Y-54164062D01*
X68736858Y-54213409D01*
X68740235Y-54247854D01*
X68746608Y-54272743D01*
X68756387Y-54293425D01*
X68764067Y-54306053D01*
X68808421Y-54354726D01*
X68865574Y-54388645D01*
X68925708Y-54403438D01*
X68970773Y-54398086D01*
X69011576Y-54374930D01*
X69062724Y-54333462D01*
X69117042Y-54280912D01*
X69167357Y-54224516D01*
X69206494Y-54171505D01*
X69220905Y-54145889D01*
X69242491Y-54110814D01*
X69281753Y-54057389D01*
X69335102Y-53989789D01*
X69398952Y-53912190D01*
X69469715Y-53828768D01*
X69543804Y-53743698D01*
X69617632Y-53661155D01*
X69687611Y-53585316D01*
X69750155Y-53520356D01*
X69799260Y-53472669D01*
X69853779Y-53425032D01*
X69899642Y-53389908D01*
X69931811Y-53370949D01*
X69942489Y-53368864D01*
X69958853Y-53377274D01*
X69999671Y-53399846D01*
X70062586Y-53435224D01*
X70145244Y-53482054D01*
X70245289Y-53538981D01*
X70360366Y-53604649D01*
X70488119Y-53677703D01*
X70626194Y-53756788D01*
X70772234Y-53840548D01*
X70923884Y-53927629D01*
X71078790Y-54016676D01*
X71234595Y-54106332D01*
X71388944Y-54195243D01*
X71539482Y-54282054D01*
X71683854Y-54365409D01*
X71819704Y-54443954D01*
X71944677Y-54516333D01*
X72056417Y-54581190D01*
X72152570Y-54637171D01*
X72230779Y-54682920D01*
X72288689Y-54717083D01*
X72323946Y-54738304D01*
X72334165Y-54744963D01*
X72320402Y-54746280D01*
X72277104Y-54747559D01*
X72205714Y-54748796D01*
X72107673Y-54749983D01*
X71984422Y-54751115D01*
X71837403Y-54752186D01*
X71668057Y-54753189D01*
X71477826Y-54754119D01*
X71268151Y-54754968D01*
X71040473Y-54755732D01*
X70796235Y-54756403D01*
X70536877Y-54756976D01*
X70263841Y-54757444D01*
X69978568Y-54757802D01*
X69682500Y-54758042D01*
X69377079Y-54758159D01*
X69248924Y-54758171D01*
X66148970Y-54758171D01*
X66370053Y-54374847D01*
X66416856Y-54293680D01*
X66477102Y-54189166D01*
X66548778Y-54064801D01*
X66629869Y-53924082D01*
X66718362Y-53770503D01*
X66812240Y-53607562D01*
X66909491Y-53438754D01*
X67008100Y-53267575D01*
X67106053Y-53097521D01*
X67130825Y-53054512D01*
X67221152Y-52897857D01*
X67307289Y-52748803D01*
X67387942Y-52609568D01*
X67461816Y-52482371D01*
X67527617Y-52369432D01*
X67584050Y-52272968D01*
X67629821Y-52195200D01*
X67663635Y-52138346D01*
X67684198Y-52104625D01*
X67689953Y-52096040D01*
X67702058Y-52089189D01*
X67722094Y-52091158D01*
G36*
X67722094Y-52091158D02*
G01*
X67754619Y-52103736D01*
X67804193Y-52128712D01*
X67875374Y-52167876D01*
X67880916Y-52170988D01*
X67946474Y-52208476D01*
X68001798Y-52241319D01*
X68041455Y-52266205D01*
X68060012Y-52279820D01*
X68060531Y-52280487D01*
X68056048Y-52299390D01*
X68035486Y-52341605D01*
X68000183Y-52404832D01*
X67951480Y-52486772D01*
X67890718Y-52585122D01*
X67819236Y-52697585D01*
X67801445Y-52725165D01*
X67755093Y-52801699D01*
X67721342Y-52867556D01*
X67703153Y-52916782D01*
X67701286Y-52926507D01*
X67702115Y-52969312D01*
X67711394Y-53037209D01*
X67727968Y-53125843D01*
X67750680Y-53230859D01*
X67778373Y-53347902D01*
X67809890Y-53472616D01*
X67844075Y-53600645D01*
X67879771Y-53727634D01*
X67915821Y-53849228D01*
X67951068Y-53961072D01*
X67984356Y-54058810D01*
X68014528Y-54138087D01*
X68035561Y-54185122D01*
X68060337Y-54235225D01*
X68083730Y-54283168D01*
X68084997Y-54285793D01*
X68123699Y-54334220D01*
X68180184Y-54366828D01*
X68245939Y-54382454D01*
X68312451Y-54379937D01*
X68371205Y-54358114D01*
X68404258Y-54329382D01*
X68451859Y-54250583D01*
X68486739Y-54152378D01*
X68505877Y-54044779D01*
X68508588Y-53983780D01*
X68497670Y-53869935D01*
X68465624Y-53775660D01*
X68410726Y-53696379D01*
X68393607Y-53678733D01*
X68342661Y-53629235D01*
X68339163Y-53279362D01*
X68335664Y-52929489D01*
X68424818Y-52794531D01*
X68466654Y-52733445D01*
X68506945Y-52678493D01*
X68539943Y-52637336D01*
X68554126Y-52622192D01*
X68594281Y-52584810D01*
X68648665Y-52614098D01*
X68683039Y-52635084D01*
X68701846Y-52651378D01*
X68703049Y-52654307D01*
X68715903Y-52666728D01*
X68737896Y-52675977D01*
X68759150Y-52684313D01*
X68791694Y-52700149D01*
X68838322Y-52725033D01*
X68901829Y-52760509D01*
X68985008Y-52808123D01*
X69090653Y-52869422D01*
X69148062Y-52902932D01*
X69215594Y-52943071D01*
X69259885Y-52971659D01*
X69284855Y-52992039D01*
X69294423Y-53007553D01*
X69292508Y-53021546D01*
X69290911Y-53024796D01*
X69275376Y-53045266D01*
X69242136Y-53083665D01*
X69195062Y-53135696D01*
X69138028Y-53197066D01*
X69088700Y-53249090D01*
X68975030Y-53372567D01*
X68886105Y-53479591D01*
X68821134Y-53571240D01*
X68779321Y-53648588D01*
X68765217Y-53687866D01*
X68759392Y-53722249D01*
X68753375Y-53780899D01*
X68747696Y-53857117D01*
X68742884Y-53944202D01*
X68740619Y-53999268D01*
X68737459Y-54094464D01*
X68736069Y-54164062D01*
X68736858Y-54213409D01*
X68740235Y-54247854D01*
X68746608Y-54272743D01*
X68756387Y-54293425D01*
X68764067Y-54306053D01*
X68808421Y-54354726D01*
X68865574Y-54388645D01*
X68925708Y-54403438D01*
X68970773Y-54398086D01*
X69011576Y-54374930D01*
X69062724Y-54333462D01*
X69117042Y-54280912D01*
X69167357Y-54224516D01*
X69206494Y-54171505D01*
X69220905Y-54145889D01*
X69242491Y-54110814D01*
X69281753Y-54057389D01*
X69335102Y-53989789D01*
X69398952Y-53912190D01*
X69469715Y-53828768D01*
X69543804Y-53743698D01*
X69617632Y-53661155D01*
X69687611Y-53585316D01*
X69750155Y-53520356D01*
X69799260Y-53472669D01*
X69853779Y-53425032D01*
X69899642Y-53389908D01*
X69931811Y-53370949D01*
X69942489Y-53368864D01*
X69958853Y-53377274D01*
X69999671Y-53399846D01*
X70062586Y-53435224D01*
X70145244Y-53482054D01*
X70245289Y-53538981D01*
X70360366Y-53604649D01*
X70488119Y-53677703D01*
X70626194Y-53756788D01*
X70772234Y-53840548D01*
X70923884Y-53927629D01*
X71078790Y-54016676D01*
X71234595Y-54106332D01*
X71388944Y-54195243D01*
X71539482Y-54282054D01*
X71683854Y-54365409D01*
X71819704Y-54443954D01*
X71944677Y-54516333D01*
X72056417Y-54581190D01*
X72152570Y-54637171D01*
X72230779Y-54682920D01*
X72288689Y-54717083D01*
X72323946Y-54738304D01*
X72334165Y-54744963D01*
X72320402Y-54746280D01*
X72277104Y-54747559D01*
X72205714Y-54748796D01*
X72107673Y-54749983D01*
X71984422Y-54751115D01*
X71837403Y-54752186D01*
X71668057Y-54753189D01*
X71477826Y-54754119D01*
X71268151Y-54754968D01*
X71040473Y-54755732D01*
X70796235Y-54756403D01*
X70536877Y-54756976D01*
X70263841Y-54757444D01*
X69978568Y-54757802D01*
X69682500Y-54758042D01*
X69377079Y-54758159D01*
X69248924Y-54758171D01*
X66148970Y-54758171D01*
X66370053Y-54374847D01*
X66416856Y-54293680D01*
X66477102Y-54189166D01*
X66548778Y-54064801D01*
X66629869Y-53924082D01*
X66718362Y-53770503D01*
X66812240Y-53607562D01*
X66909491Y-53438754D01*
X67008100Y-53267575D01*
X67106053Y-53097521D01*
X67130825Y-53054512D01*
X67221152Y-52897857D01*
X67307289Y-52748803D01*
X67387942Y-52609568D01*
X67461816Y-52482371D01*
X67527617Y-52369432D01*
X67584050Y-52272968D01*
X67629821Y-52195200D01*
X67663635Y-52138346D01*
X67684198Y-52104625D01*
X67689953Y-52096040D01*
X67702058Y-52089189D01*
X67722094Y-52091158D01*
G37*
D12*
%TO.C,LOG1*%
G36*
X107006262Y-48103387D02*
G01*
X106733747Y-48103387D01*
X106733747Y-46388145D01*
X107006262Y-46388145D01*
X107006262Y-48103387D01*
G37*
G36*
X109859655Y-46107615D02*
G01*
X109683321Y-46107615D01*
X109683321Y-45931282D01*
X109859655Y-45931282D01*
X109859655Y-46107615D01*
G37*
G36*
X110228351Y-46660660D02*
G01*
X109955836Y-46660660D01*
X109955836Y-46388145D01*
X110228351Y-46388145D01*
X110228351Y-46660660D01*
G37*
G36*
X110228351Y-48103387D02*
G01*
X109955836Y-48103387D01*
X109955836Y-46957221D01*
X110228351Y-46957221D01*
X110228351Y-48103387D01*
G37*
G36*
X111013836Y-46340054D02*
G01*
X110733306Y-46340054D01*
X110733306Y-46059524D01*
X111013836Y-46059524D01*
X111013836Y-46340054D01*
G37*
G36*
X111222230Y-45642737D02*
G01*
X110941699Y-45642737D01*
X110941699Y-45362207D01*
X111222230Y-45362207D01*
X111222230Y-45642737D01*
G37*
G36*
X111478714Y-46716766D02*
G01*
X111342457Y-46716766D01*
X111342457Y-46572494D01*
X111478714Y-46572494D01*
X111478714Y-46716766D01*
G37*
G36*
X111494745Y-46131661D02*
G01*
X111262305Y-46131661D01*
X111262305Y-45899221D01*
X111494745Y-45899221D01*
X111494745Y-46131661D01*
G37*
G36*
X111807335Y-47037372D02*
G01*
X111735199Y-47037372D01*
X111735199Y-46973251D01*
X111807335Y-46973251D01*
X111807335Y-47037372D01*
G37*
G36*
X111967638Y-46532418D02*
G01*
X111791305Y-46532418D01*
X111791305Y-46356085D01*
X111967638Y-46356085D01*
X111967638Y-46532418D01*
G37*
G36*
X111991684Y-45907236D02*
G01*
X111791305Y-45907236D01*
X111791305Y-45698843D01*
X111991684Y-45698843D01*
X111991684Y-45907236D01*
G37*
G36*
X112408471Y-46316009D02*
G01*
X112248168Y-46316009D01*
X112248168Y-46155706D01*
X112408471Y-46155706D01*
X112408471Y-46316009D01*
G37*
G36*
X113129834Y-46396160D02*
G01*
X113033653Y-46396160D01*
X113033653Y-46307994D01*
X113129834Y-46307994D01*
X113129834Y-46396160D01*
G37*
G36*
X112198074Y-46806646D02*
G01*
X112276221Y-46808940D01*
X112280809Y-46965236D01*
X112119926Y-46965236D01*
X112119926Y-46804352D01*
X112198074Y-46806646D01*
G37*
G36*
X110483022Y-45740922D02*
G01*
X110480828Y-45879183D01*
X110342567Y-45881377D01*
X110204306Y-45883570D01*
X110204306Y-45602661D01*
X110485215Y-45602661D01*
X110483022Y-45740922D01*
G37*
G36*
X112721062Y-46716766D02*
G01*
X112664704Y-46716766D01*
X112631135Y-46715598D01*
X112611524Y-46711864D01*
X112604178Y-46705903D01*
X112602356Y-46692583D01*
X112601784Y-46668779D01*
X112602426Y-46643786D01*
X112604842Y-46592532D01*
X112721062Y-46587822D01*
X112721062Y-46716766D01*
G37*
G36*
X109358708Y-46432229D02*
G01*
X109300482Y-46434586D01*
X109267953Y-46435063D01*
X109248472Y-46432987D01*
X109239200Y-46427957D01*
X109237952Y-46425726D01*
X109236058Y-46412206D01*
X109235438Y-46388247D01*
X109236064Y-46363256D01*
X109238481Y-46312001D01*
X109358708Y-46312001D01*
X109358708Y-46432229D01*
G37*
G36*
X110915253Y-46936754D02*
G01*
X110987373Y-46952963D01*
X111038108Y-46972909D01*
X111093948Y-47001247D01*
X111149080Y-47034636D01*
X111197691Y-47069733D01*
X111213317Y-47082887D01*
X111248179Y-47113825D01*
X111177095Y-47177311D01*
X111146834Y-47204361D01*
X111118915Y-47229361D01*
X111096691Y-47249307D01*
X111084603Y-47260204D01*
X111063195Y-47279610D01*
X111036512Y-47259285D01*
X111014648Y-47244393D01*
X110985645Y-47226862D01*
X110962927Y-47214309D01*
X110934422Y-47200688D01*
X110909635Y-47193187D01*
X110881208Y-47190102D01*
X110856328Y-47189660D01*
X110810878Y-47192083D01*
X110778429Y-47200076D01*
X110756595Y-47214722D01*
X110742987Y-47237108D01*
X110741266Y-47241924D01*
X110736052Y-47263800D01*
X110739011Y-47279965D01*
X110744895Y-47290313D01*
X110769784Y-47317342D01*
X110808645Y-47344908D01*
X110859523Y-47371716D01*
X110883989Y-47382432D01*
X110972945Y-47421861D01*
X111047147Y-47460582D01*
X111107774Y-47499686D01*
X111156000Y-47540262D01*
X111193002Y-47583402D01*
X111219957Y-47630197D01*
X111238041Y-47681736D01*
X111245477Y-47717559D01*
X111249101Y-47788117D01*
X111237007Y-47856107D01*
X111209377Y-47921021D01*
X111166390Y-47982347D01*
X111142638Y-48008083D01*
X111081704Y-48060205D01*
X111016738Y-48097424D01*
X110945488Y-48120764D01*
X110873571Y-48130791D01*
X110838169Y-48131701D01*
X110802851Y-48130334D01*
X110779500Y-48127630D01*
X110699694Y-48107192D01*
X110629204Y-48075597D01*
X110564788Y-48031100D01*
X110516078Y-47985692D01*
X110485711Y-47952969D01*
X110461453Y-47924527D01*
X110444786Y-47902282D01*
X110437192Y-47888150D01*
X110437663Y-47884322D01*
X110445601Y-47880260D01*
X110465355Y-47870537D01*
X110494295Y-47856440D01*
X110529790Y-47839251D01*
X110546210Y-47831328D01*
X110651667Y-47780489D01*
X110686475Y-47808722D01*
X110729933Y-47840581D01*
X110769131Y-47860955D01*
X110808678Y-47871711D01*
X110849525Y-47874717D01*
X110883329Y-47873703D01*
X110908186Y-47869224D01*
X110931078Y-47859639D01*
X110943659Y-47852602D01*
X110975759Y-47828123D01*
X110997282Y-47799889D01*
X111005751Y-47771229D01*
X111005791Y-47769152D01*
X110999352Y-47745788D01*
X110982399Y-47719215D01*
X110958348Y-47694152D01*
X110943095Y-47682564D01*
X110924370Y-47671857D01*
X110894514Y-47656727D01*
X110857182Y-47638944D01*
X110816026Y-47620282D01*
X110802507Y-47614354D01*
X110724972Y-47578877D01*
X110661494Y-47545508D01*
X110610480Y-47512890D01*
X110570337Y-47479665D01*
X110539470Y-47444475D01*
X110516286Y-47405962D01*
X110499191Y-47362770D01*
X110496393Y-47353556D01*
X110485440Y-47288116D01*
X110489106Y-47221258D01*
X110506635Y-47156089D01*
X110537269Y-47095715D01*
X110569338Y-47054421D01*
X110625719Y-47004971D01*
X110690666Y-46967953D01*
X110762015Y-46943894D01*
X110837599Y-46933319D01*
X110915253Y-46936754D01*
G37*
G36*
X105985849Y-46939918D02*
G01*
X106072382Y-46960495D01*
X106153177Y-46995428D01*
X106229464Y-47045242D01*
X106297243Y-47105180D01*
X106359809Y-47176311D01*
X106407964Y-47250954D01*
X106442632Y-47331229D01*
X106464738Y-47419253D01*
X106474960Y-47512270D01*
X106479533Y-47598432D01*
X105548798Y-47598432D01*
X105557074Y-47628489D01*
X105582937Y-47693654D01*
X105621376Y-47750708D01*
X105670535Y-47798514D01*
X105728554Y-47835936D01*
X105793576Y-47861833D01*
X105863742Y-47875070D01*
X105937196Y-47874509D01*
X105955060Y-47872201D01*
X106027752Y-47854110D01*
X106093597Y-47822625D01*
X106154764Y-47776635D01*
X106170539Y-47761802D01*
X106193804Y-47739328D01*
X106212519Y-47721883D01*
X106223954Y-47711981D01*
X106226080Y-47710644D01*
X106234554Y-47715318D01*
X106252591Y-47727936D01*
X106277497Y-47746393D01*
X106306582Y-47768586D01*
X106337154Y-47792411D01*
X106366522Y-47815762D01*
X106391994Y-47836537D01*
X106410878Y-47852629D01*
X106420482Y-47861936D01*
X106421157Y-47863155D01*
X106415944Y-47871861D01*
X106401871Y-47889241D01*
X106381283Y-47912508D01*
X106363872Y-47931205D01*
X106290992Y-47998376D01*
X106213082Y-48051163D01*
X106128721Y-48090205D01*
X106036485Y-48116141D01*
X105934952Y-48129610D01*
X105920210Y-48130521D01*
X105880331Y-48131545D01*
X105839618Y-48130755D01*
X105805632Y-48128334D01*
X105799758Y-48127594D01*
X105708408Y-48106949D01*
X105621864Y-48072207D01*
X105541884Y-48024724D01*
X105470229Y-47965859D01*
X105408657Y-47896969D01*
X105358927Y-47819410D01*
X105335567Y-47769430D01*
X105308060Y-47682105D01*
X105293783Y-47590303D01*
X105292556Y-47496923D01*
X105304199Y-47404866D01*
X105316336Y-47361056D01*
X105587581Y-47361056D01*
X105595301Y-47362180D01*
X105617275Y-47363215D01*
X105651731Y-47364130D01*
X105696892Y-47364895D01*
X105750984Y-47365481D01*
X105812233Y-47365857D01*
X105878863Y-47365993D01*
X106173593Y-47365993D01*
X106159114Y-47341320D01*
X106129823Y-47302219D01*
X106090195Y-47264241D01*
X106045524Y-47232075D01*
X106020399Y-47218407D01*
X105995928Y-47207350D01*
X105975293Y-47200186D01*
X105953758Y-47196081D01*
X105926591Y-47194200D01*
X105889055Y-47193710D01*
X105880134Y-47193705D01*
X105839310Y-47194127D01*
X105809894Y-47195846D01*
X105787277Y-47199603D01*
X105766846Y-47206138D01*
X105745997Y-47215250D01*
X105715820Y-47230767D01*
X105686919Y-47247888D01*
X105671821Y-47258270D01*
X105655380Y-47273140D01*
X105635787Y-47294117D01*
X105616176Y-47317379D01*
X105599679Y-47339102D01*
X105589429Y-47355464D01*
X105587581Y-47361056D01*
X105316336Y-47361056D01*
X105328532Y-47317030D01*
X105365376Y-47236316D01*
X105368964Y-47230075D01*
X105401752Y-47182053D01*
X105444224Y-47131570D01*
X105491789Y-47083457D01*
X105539854Y-47042544D01*
X105562711Y-47026250D01*
X105633884Y-46985619D01*
X105706635Y-46957284D01*
X105784589Y-46940219D01*
X105871375Y-46933402D01*
X105892347Y-46933175D01*
X105985849Y-46939918D01*
G37*
G36*
X109003301Y-47105161D02*
G01*
X109036022Y-47146901D01*
X109065610Y-47183938D01*
X109090629Y-47214532D01*
X109109644Y-47236944D01*
X109121219Y-47249434D01*
X109124013Y-47251438D01*
X109130346Y-47244865D01*
X109144928Y-47227358D01*
X109166304Y-47200739D01*
X109193018Y-47166834D01*
X109223615Y-47127464D01*
X109240527Y-47105501D01*
X109351282Y-46961228D01*
X109517302Y-46959062D01*
X109566926Y-46958618D01*
X109610632Y-46958617D01*
X109646061Y-46959026D01*
X109670858Y-46959814D01*
X109682664Y-46960947D01*
X109683321Y-46961334D01*
X109678584Y-46968437D01*
X109665066Y-46986840D01*
X109643805Y-47015172D01*
X109615844Y-47052063D01*
X109582220Y-47096143D01*
X109543975Y-47146041D01*
X109502147Y-47200389D01*
X109487025Y-47219985D01*
X109444204Y-47275536D01*
X109404604Y-47327095D01*
X109369264Y-47373294D01*
X109339224Y-47412765D01*
X109315523Y-47444141D01*
X109299201Y-47466055D01*
X109291298Y-47477140D01*
X109290713Y-47478205D01*
X109295443Y-47485166D01*
X109309015Y-47503586D01*
X109330486Y-47532225D01*
X109358918Y-47569842D01*
X109393368Y-47615196D01*
X109432898Y-47667046D01*
X109476565Y-47724152D01*
X109523430Y-47785273D01*
X109527671Y-47790796D01*
X109764645Y-48099379D01*
X109602146Y-48101554D01*
X109546609Y-48102181D01*
X109504882Y-48102270D01*
X109474750Y-48101671D01*
X109453999Y-48100231D01*
X109440413Y-48097799D01*
X109431777Y-48094225D01*
X109426042Y-48089531D01*
X109417773Y-48079685D01*
X109401119Y-48058866D01*
X109377451Y-48028822D01*
X109348138Y-47991302D01*
X109314549Y-47948054D01*
X109278055Y-47900827D01*
X109270472Y-47890985D01*
X109234084Y-47843895D01*
X109200778Y-47801104D01*
X109171823Y-47764218D01*
X109148491Y-47734845D01*
X109132051Y-47714592D01*
X109123773Y-47705066D01*
X109123134Y-47704551D01*
X109117087Y-47710124D01*
X109102468Y-47726903D01*
X109080491Y-47753395D01*
X109052370Y-47788109D01*
X109019317Y-47829553D01*
X108982548Y-47876236D01*
X108961712Y-47902922D01*
X108805663Y-48103380D01*
X108643356Y-48103383D01*
X108594315Y-48103197D01*
X108551220Y-48102674D01*
X108516457Y-48101874D01*
X108492410Y-48100855D01*
X108481463Y-48099676D01*
X108481049Y-48099391D01*
X108485781Y-48092431D01*
X108499349Y-48074007D01*
X108520815Y-48045360D01*
X108549238Y-48007731D01*
X108583679Y-47962359D01*
X108623198Y-47910485D01*
X108666855Y-47853350D01*
X108713711Y-47792194D01*
X108718151Y-47786407D01*
X108779237Y-47706474D01*
X108830500Y-47638678D01*
X108872182Y-47582681D01*
X108904528Y-47538145D01*
X108927782Y-47504732D01*
X108942186Y-47482104D01*
X108947985Y-47469923D01*
X108947878Y-47467793D01*
X108941364Y-47459400D01*
X108926172Y-47439885D01*
X108903485Y-47410766D01*
X108874486Y-47373558D01*
X108840357Y-47329780D01*
X108802281Y-47280949D01*
X108768591Y-47237751D01*
X108727297Y-47184779D01*
X108688244Y-47134631D01*
X108652755Y-47089009D01*
X108622156Y-47049619D01*
X108597770Y-47018164D01*
X108580920Y-46996348D01*
X108573980Y-46987278D01*
X108551283Y-46957221D01*
X108888349Y-46957221D01*
X109003301Y-47105161D01*
G37*
G36*
X107938227Y-46939618D02*
G01*
X108024379Y-46959299D01*
X108104565Y-46993007D01*
X108180330Y-47041390D01*
X108253219Y-47105098D01*
X108253301Y-47105180D01*
X108287148Y-47139876D01*
X108312282Y-47168746D01*
X108332136Y-47196421D01*
X108350144Y-47227535D01*
X108363462Y-47253781D01*
X108390456Y-47313118D01*
X108409192Y-47366185D01*
X108421317Y-47419316D01*
X108428477Y-47478843D01*
X108430672Y-47512270D01*
X108435229Y-47598432D01*
X107509213Y-47598432D01*
X107514349Y-47624482D01*
X107532705Y-47679499D01*
X107564380Y-47732683D01*
X107606730Y-47780752D01*
X107657110Y-47820427D01*
X107685271Y-47836485D01*
X107757675Y-47864191D01*
X107831640Y-47876475D01*
X107905507Y-47873618D01*
X107977617Y-47855901D01*
X108046310Y-47823605D01*
X108109925Y-47777011D01*
X108126235Y-47761802D01*
X108149483Y-47739331D01*
X108168162Y-47721887D01*
X108179547Y-47711983D01*
X108181647Y-47710644D01*
X108188827Y-47715210D01*
X108206528Y-47727812D01*
X108232495Y-47746807D01*
X108264473Y-47770551D01*
X108284917Y-47785876D01*
X108384949Y-47861108D01*
X108346837Y-47903735D01*
X108282572Y-47969542D01*
X108218825Y-48021629D01*
X108152544Y-48061900D01*
X108080675Y-48092264D01*
X108014410Y-48111350D01*
X107957181Y-48122038D01*
X107894009Y-48128916D01*
X107831097Y-48131595D01*
X107774646Y-48129691D01*
X107754946Y-48127515D01*
X107662213Y-48106650D01*
X107575188Y-48071536D01*
X107495312Y-48023376D01*
X107424023Y-47963374D01*
X107362761Y-47892732D01*
X107312965Y-47812653D01*
X107277436Y-47728470D01*
X107267271Y-47697101D01*
X107260158Y-47671406D01*
X107255547Y-47647230D01*
X107252888Y-47620421D01*
X107251633Y-47586827D01*
X107251230Y-47542293D01*
X107251201Y-47530304D01*
X107251287Y-47482990D01*
X107252098Y-47447757D01*
X107254148Y-47420654D01*
X107257948Y-47397734D01*
X107264015Y-47375046D01*
X107267048Y-47365993D01*
X107542866Y-47365993D01*
X107835624Y-47365993D01*
X107902337Y-47365854D01*
X107963713Y-47365459D01*
X108017975Y-47364838D01*
X108063348Y-47364025D01*
X108098056Y-47363051D01*
X108120325Y-47361949D01*
X108128379Y-47360750D01*
X108128383Y-47360722D01*
X108123069Y-47348989D01*
X108109148Y-47329706D01*
X108089655Y-47306349D01*
X108067621Y-47282390D01*
X108046080Y-47261303D01*
X108029720Y-47247723D01*
X107994400Y-47224599D01*
X107961321Y-47208930D01*
X107925831Y-47199419D01*
X107883277Y-47194769D01*
X107835830Y-47193668D01*
X107795805Y-47193992D01*
X107767031Y-47195537D01*
X107744730Y-47199158D01*
X107724128Y-47205712D01*
X107700447Y-47216055D01*
X107693956Y-47219111D01*
X107650149Y-47244523D01*
X107609190Y-47276700D01*
X107575488Y-47311755D01*
X107555746Y-47341085D01*
X107542866Y-47365993D01*
X107267048Y-47365993D01*
X107272860Y-47348642D01*
X107275973Y-47339854D01*
X107299177Y-47281113D01*
X107324776Y-47231058D01*
X107355816Y-47184950D01*
X107395346Y-47138050D01*
X107427058Y-47104871D01*
X107461642Y-47070962D01*
X107490442Y-47045775D01*
X107518094Y-47025856D01*
X107549238Y-47007750D01*
X107575338Y-46994433D01*
X107641775Y-46965511D01*
X107705716Y-46946578D01*
X107773062Y-46936293D01*
X107844567Y-46933314D01*
X107938227Y-46939618D01*
G37*
G36*
X104697655Y-46280641D02*
G01*
X104700864Y-46292390D01*
X104707872Y-46318632D01*
X104718412Y-46358355D01*
X104732218Y-46410547D01*
X104749021Y-46474195D01*
X104768557Y-46548286D01*
X104790557Y-46631808D01*
X104814756Y-46723749D01*
X104840885Y-46823095D01*
X104868680Y-46928835D01*
X104897872Y-47039955D01*
X104928195Y-47155443D01*
X104941383Y-47205690D01*
X105175916Y-48099379D01*
X105043710Y-48101583D01*
X104999195Y-48101961D01*
X104960384Y-48101600D01*
X104930067Y-48100581D01*
X104911038Y-48098986D01*
X104905931Y-48097575D01*
X104903004Y-48088936D01*
X104896424Y-48066086D01*
X104886543Y-48030337D01*
X104873712Y-47983003D01*
X104858281Y-47925395D01*
X104840601Y-47858824D01*
X104821023Y-47784605D01*
X104799899Y-47704047D01*
X104777579Y-47618464D01*
X104769769Y-47588414D01*
X104747165Y-47501629D01*
X104725658Y-47419589D01*
X104705597Y-47343583D01*
X104687327Y-47274902D01*
X104671197Y-47214836D01*
X104657554Y-47164675D01*
X104646744Y-47125712D01*
X104639116Y-47099235D01*
X104635015Y-47086535D01*
X104634476Y-47085584D01*
X104630687Y-47092806D01*
X104621196Y-47113666D01*
X104606496Y-47147017D01*
X104587079Y-47191713D01*
X104563437Y-47246608D01*
X104536062Y-47310553D01*
X104505447Y-47382402D01*
X104472084Y-47461009D01*
X104436466Y-47545227D01*
X104399083Y-47633908D01*
X104397940Y-47636626D01*
X104360478Y-47725579D01*
X104324768Y-47810231D01*
X104291306Y-47889420D01*
X104260584Y-47961985D01*
X104233096Y-48026763D01*
X104209335Y-48082594D01*
X104189796Y-48128314D01*
X104174972Y-48162764D01*
X104165356Y-48184780D01*
X104161442Y-48193202D01*
X104161425Y-48193224D01*
X104157665Y-48186934D01*
X104148227Y-48166964D01*
X104133595Y-48134433D01*
X104114252Y-48090462D01*
X104090681Y-48036169D01*
X104063367Y-47972675D01*
X104032792Y-47901098D01*
X103999438Y-47822558D01*
X103963791Y-47738175D01*
X103926332Y-47649068D01*
X103920363Y-47634828D01*
X103882661Y-47545075D01*
X103846691Y-47459865D01*
X103812936Y-47380317D01*
X103781881Y-47307553D01*
X103754008Y-47242691D01*
X103729802Y-47186854D01*
X103709747Y-47141160D01*
X103694326Y-47106731D01*
X103684022Y-47084686D01*
X103679321Y-47076147D01*
X103679124Y-47076104D01*
X103676316Y-47084591D01*
X103669841Y-47107287D01*
X103660049Y-47142886D01*
X103647290Y-47190077D01*
X103631913Y-47247553D01*
X103614268Y-47314004D01*
X103594704Y-47388122D01*
X103573571Y-47468599D01*
X103551219Y-47554125D01*
X103543322Y-47584435D01*
X103520615Y-47671487D01*
X103499004Y-47754013D01*
X103478838Y-47830696D01*
X103460469Y-47900215D01*
X103444247Y-47961254D01*
X103430524Y-48012494D01*
X103419649Y-48052616D01*
X103411974Y-48080302D01*
X103407849Y-48094234D01*
X103407320Y-48095600D01*
X103397220Y-48098783D01*
X103372228Y-48100903D01*
X103333449Y-48101913D01*
X103281991Y-48101763D01*
X103269885Y-48101583D01*
X103137510Y-48099379D01*
X103378686Y-47179710D01*
X103409683Y-47061660D01*
X103439602Y-46948010D01*
X103468188Y-46839712D01*
X103495185Y-46737721D01*
X103520340Y-46642989D01*
X103543396Y-46556471D01*
X103564098Y-46479119D01*
X103582193Y-46411888D01*
X103597425Y-46355731D01*
X103609538Y-46311601D01*
X103618278Y-46280452D01*
X103623390Y-46263237D01*
X103624648Y-46259972D01*
X103628410Y-46267175D01*
X103637884Y-46288076D01*
X103652603Y-46321584D01*
X103672100Y-46366606D01*
X103695908Y-46422048D01*
X103723559Y-46486819D01*
X103754588Y-46559825D01*
X103788527Y-46639975D01*
X103824908Y-46726174D01*
X103863265Y-46817331D01*
X103884139Y-46867050D01*
X103923550Y-46960944D01*
X103961344Y-47050877D01*
X103997037Y-47135711D01*
X104030148Y-47214304D01*
X104060195Y-47285515D01*
X104086696Y-47348204D01*
X104109169Y-47401229D01*
X104127131Y-47443451D01*
X104140102Y-47473728D01*
X104147598Y-47490920D01*
X104149128Y-47494224D01*
X104159413Y-47514250D01*
X104168376Y-47494224D01*
X104172785Y-47483879D01*
X104182890Y-47459875D01*
X104198215Y-47423349D01*
X104218284Y-47375437D01*
X104242622Y-47317275D01*
X104270754Y-47250000D01*
X104302205Y-47174749D01*
X104336499Y-47092657D01*
X104373162Y-47004862D01*
X104411717Y-46912499D01*
X104432899Y-46861739D01*
X104688461Y-46249281D01*
X104697655Y-46280641D01*
G37*
%TO.C,G\u002A\u002A\u002A*%
G36*
X67900362Y-93400000D02*
G01*
X67900362Y-93500000D01*
X67400362Y-93500000D01*
X66900362Y-93500000D01*
X66900362Y-93400000D01*
X66900362Y-93300000D01*
X67400362Y-93300000D01*
X67900362Y-93300000D01*
X67900362Y-93400000D01*
G37*
G36*
X61435252Y-92890674D02*
G01*
X61468726Y-92892481D01*
X61489509Y-92895099D01*
X61493696Y-92896667D01*
X61495737Y-92908277D01*
X61497526Y-92936744D01*
X61498960Y-92978926D01*
X61499937Y-93031680D01*
X61500354Y-93091865D01*
X61500362Y-93101667D01*
X61500362Y-93300000D01*
X61700362Y-93300000D01*
X61900362Y-93300000D01*
X61900362Y-93400000D01*
X61900362Y-93500000D01*
X61700362Y-93500000D01*
X61500362Y-93500000D01*
X61500362Y-93700000D01*
X61500362Y-93900000D01*
X61400362Y-93900000D01*
X61300362Y-93900000D01*
X61300362Y-93700208D01*
X61300362Y-93500415D01*
X61097862Y-93497708D01*
X60895362Y-93495000D01*
X60892503Y-93397709D01*
X60889643Y-93300417D01*
X61092503Y-93297709D01*
X61295362Y-93295000D01*
X61298070Y-93092500D01*
X61300777Y-92890000D01*
X61393903Y-92890000D01*
X61435252Y-92890674D01*
G37*
G36*
X64859701Y-93473076D02*
G01*
X64835507Y-93565407D01*
X64792974Y-93652424D01*
X64784545Y-93665572D01*
X64727117Y-93734570D01*
X64656627Y-93790322D01*
X64576011Y-93831589D01*
X64488202Y-93857132D01*
X64396133Y-93865712D01*
X64324221Y-93859984D01*
X64231013Y-93835660D01*
X64147092Y-93794233D01*
X64074154Y-93737108D01*
X64013896Y-93665686D01*
X63968016Y-93581370D01*
X63958827Y-93557991D01*
X63937683Y-93500001D01*
X63164023Y-93500000D01*
X62390362Y-93500000D01*
X62390362Y-93528718D01*
X62387938Y-93550592D01*
X62381419Y-93586007D01*
X62371936Y-93629200D01*
X62365353Y-93656218D01*
X62321771Y-93789544D01*
X62261880Y-93912367D01*
X62186962Y-94023706D01*
X62098296Y-94122580D01*
X61997163Y-94208005D01*
X61884844Y-94279001D01*
X61762619Y-94334585D01*
X61631769Y-94373776D01*
X61493573Y-94395591D01*
X61395363Y-94400000D01*
X61252189Y-94390562D01*
X61115873Y-94362826D01*
X60987551Y-94317656D01*
X60868361Y-94255921D01*
X60759442Y-94178485D01*
X60661932Y-94086216D01*
X60576967Y-93979979D01*
X60505687Y-93860641D01*
X60449230Y-93729068D01*
X60428309Y-93663841D01*
X60419991Y-93632775D01*
X60413954Y-93603281D01*
X60409841Y-93571252D01*
X60407298Y-93532579D01*
X60405969Y-93483152D01*
X60405497Y-93418866D01*
X60405472Y-93400000D01*
X60405550Y-93377354D01*
X60625228Y-93377354D01*
X60625953Y-93450634D01*
X60630215Y-93519322D01*
X60638031Y-93577356D01*
X60643145Y-93600000D01*
X60668669Y-93674936D01*
X60704690Y-93754941D01*
X60747015Y-93831513D01*
X60785226Y-93888092D01*
X60859302Y-93969936D01*
X60947381Y-94039859D01*
X61046640Y-94096749D01*
X61154252Y-94139493D01*
X61267394Y-94166978D01*
X61383240Y-94178092D01*
X61498966Y-94171722D01*
X61503609Y-94171080D01*
X61626841Y-94144782D01*
X61739208Y-94102002D01*
X61842159Y-94042019D01*
X61937142Y-93964112D01*
X61955661Y-93945962D01*
X62033081Y-93853987D01*
X62094616Y-93751210D01*
X62139495Y-93639927D01*
X62166948Y-93522433D01*
X62176205Y-93401023D01*
X62170414Y-93306030D01*
X62145785Y-93180198D01*
X62104245Y-93064089D01*
X62046773Y-92958793D01*
X61974350Y-92865394D01*
X61887955Y-92784981D01*
X61788568Y-92718640D01*
X61677167Y-92667458D01*
X61565362Y-92634792D01*
X61508286Y-92626230D01*
X61439142Y-92621902D01*
X61365406Y-92621802D01*
X61294555Y-92625920D01*
X61234067Y-92634250D01*
X61229673Y-92635146D01*
X61110870Y-92669957D01*
X61001589Y-92721766D01*
X60903132Y-92789337D01*
X60816803Y-92871432D01*
X60743904Y-92966817D01*
X60685739Y-93074255D01*
X60644141Y-93190579D01*
X60634337Y-93241264D01*
X60628028Y-93305543D01*
X60625228Y-93377354D01*
X60405550Y-93377354D01*
X60405708Y-93331174D01*
X60406751Y-93278105D01*
X60408963Y-93236556D01*
X60412706Y-93202288D01*
X60418343Y-93171064D01*
X60426237Y-93138647D01*
X60428567Y-93130000D01*
X60475375Y-92994939D01*
X60538640Y-92870683D01*
X60617389Y-92758231D01*
X60710648Y-92658582D01*
X60817445Y-92572732D01*
X60936806Y-92501681D01*
X61067759Y-92446426D01*
X61107596Y-92433550D01*
X61141897Y-92423740D01*
X61173030Y-92416553D01*
X61205367Y-92411506D01*
X61243279Y-92408117D01*
X61291139Y-92405903D01*
X61353318Y-92404380D01*
X61375362Y-92403987D01*
X61458368Y-92403380D01*
X61523849Y-92404762D01*
X61574194Y-92408239D01*
X61611789Y-92413918D01*
X61615362Y-92414708D01*
X61752569Y-92455870D01*
X61879572Y-92513459D01*
X61995288Y-92586339D01*
X62098634Y-92673372D01*
X62188530Y-92773420D01*
X62263892Y-92885347D01*
X62323638Y-93008016D01*
X62366686Y-93140288D01*
X62383777Y-93222155D01*
X62395973Y-93295000D01*
X63166997Y-93297562D01*
X63938020Y-93300123D01*
X63955184Y-93247650D01*
X63984192Y-93177387D01*
X64023904Y-93115743D01*
X64071134Y-93063032D01*
X64144196Y-93003860D01*
X64225995Y-92961678D01*
X64314168Y-92936841D01*
X64406351Y-92929705D01*
X64500179Y-92940624D01*
X64593288Y-92969953D01*
X64617803Y-92980980D01*
X64665197Y-93010679D01*
X64714945Y-93053473D01*
X64761841Y-93103939D01*
X64800680Y-93156656D01*
X64820172Y-93191748D01*
X64852240Y-93283490D01*
X64865348Y-93378185D01*
X64863989Y-93401023D01*
X64859701Y-93473076D01*
G37*
G36*
X68394890Y-93400000D02*
G01*
X68394636Y-93464238D01*
X68393432Y-93513435D01*
X68390769Y-93552546D01*
X68386135Y-93586525D01*
X68379023Y-93620326D01*
X68368920Y-93658905D01*
X68367831Y-93662835D01*
X68327260Y-93785382D01*
X68276680Y-93893751D01*
X68213566Y-93992315D01*
X68135389Y-94085444D01*
X68106262Y-94115325D01*
X68000526Y-94206900D01*
X67885747Y-94280636D01*
X67761937Y-94336529D01*
X67629108Y-94374574D01*
X67487270Y-94394767D01*
X67454470Y-94396832D01*
X67306881Y-94395046D01*
X67166985Y-94374843D01*
X67034904Y-94336265D01*
X66910759Y-94279357D01*
X66794670Y-94204163D01*
X66698208Y-94121879D01*
X66621260Y-94037168D01*
X66552815Y-93940450D01*
X66495197Y-93836139D01*
X66450728Y-93728647D01*
X66421734Y-93622387D01*
X66415493Y-93585000D01*
X66410550Y-93552190D01*
X66405736Y-93525651D01*
X66403848Y-93517500D01*
X66401747Y-93513554D01*
X66396724Y-93510248D01*
X66387145Y-93507525D01*
X66371379Y-93505330D01*
X66347793Y-93503606D01*
X66314755Y-93502297D01*
X66270632Y-93501346D01*
X66213793Y-93500698D01*
X66142605Y-93500297D01*
X66055436Y-93500085D01*
X65950654Y-93500007D01*
X65895841Y-93500000D01*
X65392667Y-93500000D01*
X65385521Y-93557500D01*
X65363189Y-93665517D01*
X65323883Y-93775762D01*
X65269735Y-93884554D01*
X65202878Y-93988215D01*
X65125445Y-94083063D01*
X65039568Y-94165418D01*
X65027471Y-94175356D01*
X64955652Y-94226594D01*
X64871895Y-94275608D01*
X64783044Y-94318961D01*
X64695944Y-94353214D01*
X64640362Y-94369768D01*
X64508624Y-94392690D01*
X64373652Y-94397317D01*
X64238535Y-94384165D01*
X64106360Y-94353754D01*
X63980216Y-94306603D01*
X63863189Y-94243228D01*
X63855043Y-94237952D01*
X63817522Y-94211138D01*
X63776174Y-94177924D01*
X63733401Y-94140693D01*
X63691606Y-94101832D01*
X63653191Y-94063725D01*
X63620561Y-94028757D01*
X63596116Y-93999312D01*
X63582261Y-93977776D01*
X63581397Y-93966534D01*
X63581508Y-93966447D01*
X63606196Y-93948448D01*
X63637975Y-93926320D01*
X63672658Y-93902841D01*
X63706058Y-93880789D01*
X63733990Y-93862943D01*
X63752267Y-93852079D01*
X63756885Y-93850069D01*
X63767220Y-93857661D01*
X63783138Y-93876658D01*
X63789742Y-93885931D01*
X63832467Y-93937145D01*
X63890110Y-93989545D01*
X63958090Y-94039867D01*
X64031826Y-94084849D01*
X64106738Y-94121228D01*
X64136240Y-94132724D01*
X64253258Y-94164522D01*
X64372268Y-94177527D01*
X64491008Y-94172348D01*
X64607212Y-94149592D01*
X64718616Y-94109869D01*
X64822957Y-94053787D01*
X64917970Y-93981953D01*
X64995798Y-93901760D01*
X65037242Y-93845168D01*
X65078128Y-93777132D01*
X65114765Y-93704720D01*
X65143465Y-93634999D01*
X65155975Y-93595000D01*
X65163607Y-93557526D01*
X65170621Y-93508411D01*
X65175904Y-93456011D01*
X65177364Y-93434592D01*
X65177279Y-93430767D01*
X66622929Y-93430767D01*
X66636703Y-93550091D01*
X66668967Y-93669381D01*
X66669381Y-93670555D01*
X66700176Y-93746574D01*
X66736591Y-93813185D01*
X66782492Y-93876373D01*
X66841743Y-93942126D01*
X66850362Y-93950906D01*
X66923566Y-94018007D01*
X66996954Y-94069978D01*
X67076728Y-94110765D01*
X67139404Y-94134674D01*
X67262829Y-94166536D01*
X67386659Y-94178465D01*
X67510291Y-94170501D01*
X67633121Y-94142686D01*
X67754547Y-94095062D01*
X67760362Y-94092263D01*
X67803682Y-94070169D01*
X67839127Y-94048865D01*
X67871997Y-94024411D01*
X67907589Y-93992869D01*
X67950931Y-93950569D01*
X67993430Y-93907015D01*
X68024923Y-93871452D01*
X68049349Y-93838583D01*
X68070646Y-93803109D01*
X68092625Y-93760000D01*
X68125963Y-93686185D01*
X68149302Y-93620242D01*
X68164154Y-93555427D01*
X68172029Y-93484999D01*
X68174440Y-93402213D01*
X68174442Y-93395000D01*
X68173513Y-93331434D01*
X68170481Y-93281664D01*
X68164688Y-93239539D01*
X68155478Y-93198908D01*
X68152233Y-93187086D01*
X68108563Y-93067154D01*
X68049247Y-92959200D01*
X67975244Y-92864132D01*
X67887512Y-92782860D01*
X67787010Y-92716292D01*
X67674696Y-92665340D01*
X67570362Y-92634920D01*
X67522032Y-92627838D01*
X67460195Y-92624207D01*
X67391017Y-92623870D01*
X67320661Y-92626667D01*
X67255294Y-92632440D01*
X67201079Y-92641030D01*
X67185362Y-92644814D01*
X67072446Y-92685493D01*
X66970077Y-92741928D01*
X66879136Y-92812365D01*
X66800508Y-92895048D01*
X66735073Y-92988224D01*
X66683716Y-93090139D01*
X66647317Y-93199037D01*
X66626761Y-93313164D01*
X66622929Y-93430767D01*
X65177279Y-93430767D01*
X65174653Y-93312364D01*
X65153360Y-93194652D01*
X65114692Y-93083089D01*
X65059860Y-92979309D01*
X64990071Y-92884945D01*
X64906534Y-92801633D01*
X64810458Y-92731006D01*
X64703051Y-92674697D01*
X64585523Y-92634342D01*
X64585362Y-92634300D01*
X64521966Y-92622737D01*
X64446751Y-92616697D01*
X64367120Y-92616187D01*
X64290480Y-92621216D01*
X64224235Y-92631790D01*
X64215362Y-92633929D01*
X64127133Y-92662947D01*
X64038821Y-92703897D01*
X63955006Y-92753921D01*
X63880269Y-92810161D01*
X63819188Y-92869760D01*
X63800362Y-92892890D01*
X63780100Y-92918019D01*
X63763817Y-92935026D01*
X63756675Y-92939691D01*
X63746415Y-92934560D01*
X63724052Y-92920873D01*
X63693906Y-92901490D01*
X63660297Y-92879267D01*
X63627546Y-92857063D01*
X63599972Y-92837736D01*
X63581897Y-92824144D01*
X63581495Y-92823811D01*
X63585598Y-92815192D01*
X63599841Y-92794826D01*
X63621597Y-92766366D01*
X63633605Y-92751315D01*
X63711121Y-92668787D01*
X63803970Y-92592407D01*
X63907751Y-92525078D01*
X64018062Y-92469701D01*
X64115362Y-92433676D01*
X64148311Y-92423915D01*
X64176984Y-92416750D01*
X64205456Y-92411770D01*
X64237807Y-92408566D01*
X64278112Y-92406727D01*
X64330448Y-92405844D01*
X64395362Y-92405515D01*
X64467246Y-92405669D01*
X64522730Y-92406739D01*
X64565405Y-92408974D01*
X64598858Y-92412628D01*
X64626681Y-92417949D01*
X64645362Y-92422990D01*
X64758647Y-92461552D01*
X64857049Y-92505764D01*
X64945492Y-92558488D01*
X65028897Y-92622582D01*
X65096348Y-92685000D01*
X65187705Y-92785659D01*
X65260801Y-92889588D01*
X65317370Y-92999966D01*
X65359152Y-93119970D01*
X65378489Y-93201080D01*
X65397462Y-93295000D01*
X65898442Y-93297593D01*
X66399422Y-93300185D01*
X66405397Y-93262593D01*
X66436768Y-93118177D01*
X66483420Y-92985765D01*
X66546178Y-92863538D01*
X66625866Y-92749678D01*
X66652660Y-92717500D01*
X66722961Y-92647612D01*
X66808574Y-92581264D01*
X66904826Y-92521337D01*
X67007041Y-92470712D01*
X67110544Y-92432270D01*
X67120362Y-92429330D01*
X67167247Y-92419291D01*
X67228982Y-92411390D01*
X67300518Y-92405770D01*
X67376805Y-92402578D01*
X67452794Y-92401958D01*
X67523435Y-92404054D01*
X67583678Y-92409012D01*
X67620362Y-92414995D01*
X67757942Y-92455358D01*
X67884937Y-92512535D01*
X68000587Y-92585916D01*
X68104129Y-92674894D01*
X68194801Y-92778858D01*
X68271840Y-92897200D01*
X68305252Y-92962086D01*
X68338152Y-93037019D01*
X68362382Y-93106653D01*
X68379046Y-93176383D01*
X68389247Y-93251603D01*
X68394092Y-93337708D01*
X68394826Y-93395000D01*
X68394890Y-93400000D01*
G37*
%TD*%
M02*
