%TF.GenerationSoftware,KiCad,Pcbnew,9.0.6-9.0.6~ubuntu24.04.1*%
%TF.CreationDate,2025-12-14T15:25:01+01:00*%
%TF.ProjectId,MCM-81349,4d434d2d-3831-4333-9439-2e6b69636164,rev?*%
%TF.SameCoordinates,Original*%
%TF.FileFunction,Soldermask,Top*%
%TF.FilePolarity,Negative*%
%FSLAX46Y46*%
G04 Gerber Fmt 4.6, Leading zero omitted, Abs format (unit mm)*
G04 Created by KiCad (PCBNEW 9.0.6-9.0.6~ubuntu24.04.1) date 2025-12-14 15:25:01*
%MOMM*%
%LPD*%
G01*
G04 APERTURE LIST*
G04 Aperture macros list*
%AMRoundRect*
0 Rectangle with rounded corners*
0 $1 Rounding radius*
0 $2 $3 $4 $5 $6 $7 $8 $9 X,Y pos of 4 corners*
0 Add a 4 corners polygon primitive as box body*
4,1,4,$2,$3,$4,$5,$6,$7,$8,$9,$2,$3,0*
0 Add four circle primitives for the rounded corners*
1,1,$1+$1,$2,$3*
1,1,$1+$1,$4,$5*
1,1,$1+$1,$6,$7*
1,1,$1+$1,$8,$9*
0 Add four rect primitives between the rounded corners*
20,1,$1+$1,$2,$3,$4,$5,0*
20,1,$1+$1,$4,$5,$6,$7,0*
20,1,$1+$1,$6,$7,$8,$9,0*
20,1,$1+$1,$8,$9,$2,$3,0*%
%AMFreePoly0*
4,1,9,3.862500,-0.866500,0.737500,-0.866500,0.737500,-0.450000,-0.737500,-0.450000,-0.737500,0.450000,0.737500,0.450000,0.737500,0.866500,3.862500,0.866500,3.862500,-0.866500,3.862500,-0.866500,$1*%
%AMFreePoly1*
4,1,9,3.250000,0.285000,2.050000,0.285000,2.050000,-0.285000,3.250000,-0.285000,3.250000,-0.985000,-2.050000,-0.985000,-2.050000,0.985000,3.250000,0.985000,3.250000,0.285000,3.250000,0.285000,$1*%
%AMFreePoly2*
4,1,9,2.975000,-2.350000,1.425000,-2.350000,1.425000,-2.100000,-1.650000,-2.100000,-1.650000,2.100000,1.425000,2.100000,1.425000,2.350000,2.975000,2.350000,2.975000,-2.350000,2.975000,-2.350000,$1*%
G04 Aperture macros list end*
%ADD10C,0.150000*%
%ADD11RoundRect,0.112500X-0.187500X-0.112500X0.187500X-0.112500X0.187500X0.112500X-0.187500X0.112500X0*%
%ADD12RoundRect,0.200000X-0.275000X0.200000X-0.275000X-0.200000X0.275000X-0.200000X0.275000X0.200000X0*%
%ADD13RoundRect,0.112500X0.187500X0.112500X-0.187500X0.112500X-0.187500X-0.112500X0.187500X-0.112500X0*%
%ADD14RoundRect,0.135000X0.185000X-0.135000X0.185000X0.135000X-0.185000X0.135000X-0.185000X-0.135000X0*%
%ADD15RoundRect,0.135000X-0.135000X-0.185000X0.135000X-0.185000X0.135000X0.185000X-0.135000X0.185000X0*%
%ADD16RoundRect,0.250000X0.325000X1.100000X-0.325000X1.100000X-0.325000X-1.100000X0.325000X-1.100000X0*%
%ADD17RoundRect,0.200000X0.275000X-0.200000X0.275000X0.200000X-0.275000X0.200000X-0.275000X-0.200000X0*%
%ADD18C,1.500000*%
%ADD19RoundRect,0.225000X0.250000X-0.225000X0.250000X0.225000X-0.250000X0.225000X-0.250000X-0.225000X0*%
%ADD20R,2.600000X0.800000*%
%ADD21R,2.600000X4.400000*%
%ADD22R,7.410000X10.000000*%
%ADD23R,2.108200X5.156200*%
%ADD24RoundRect,0.218750X-0.256250X0.218750X-0.256250X-0.218750X0.256250X-0.218750X0.256250X0.218750X0*%
%ADD25RoundRect,0.218750X0.256250X-0.218750X0.256250X0.218750X-0.256250X0.218750X-0.256250X-0.218750X0*%
%ADD26R,1.700000X1.700000*%
%ADD27C,1.700000*%
%ADD28R,1.600000X0.300000*%
%ADD29RoundRect,0.135000X0.135000X0.185000X-0.135000X0.185000X-0.135000X-0.185000X0.135000X-0.185000X0*%
%ADD30RoundRect,0.200000X0.200000X0.275000X-0.200000X0.275000X-0.200000X-0.275000X0.200000X-0.275000X0*%
%ADD31RoundRect,0.112500X0.112500X-0.187500X0.112500X0.187500X-0.112500X0.187500X-0.112500X-0.187500X0*%
%ADD32RoundRect,0.225000X-0.250000X0.225000X-0.250000X-0.225000X0.250000X-0.225000X0.250000X0.225000X0*%
%ADD33RoundRect,0.250000X2.250000X-1.050000X2.250000X1.050000X-2.250000X1.050000X-2.250000X-1.050000X0*%
%ADD34RoundRect,0.125000X-0.125000X0.125000X-0.125000X-0.125000X0.125000X-0.125000X0.125000X0.125000X0*%
%ADD35RoundRect,0.200000X-0.200000X-0.275000X0.200000X-0.275000X0.200000X0.275000X-0.200000X0.275000X0*%
%ADD36RoundRect,0.140000X-0.140000X-0.170000X0.140000X-0.170000X0.140000X0.170000X-0.140000X0.170000X0*%
%ADD37RoundRect,0.062500X0.350000X0.062500X-0.350000X0.062500X-0.350000X-0.062500X0.350000X-0.062500X0*%
%ADD38RoundRect,0.062500X0.062500X0.350000X-0.062500X0.350000X-0.062500X-0.350000X0.062500X-0.350000X0*%
%ADD39R,2.600000X2.600000*%
%ADD40RoundRect,0.250000X-0.475000X0.250000X-0.475000X-0.250000X0.475000X-0.250000X0.475000X0.250000X0*%
%ADD41RoundRect,0.135000X-0.185000X0.135000X-0.185000X-0.135000X0.185000X-0.135000X0.185000X0.135000X0*%
%ADD42RoundRect,0.140000X0.170000X-0.140000X0.170000X0.140000X-0.170000X0.140000X-0.170000X-0.140000X0*%
%ADD43RoundRect,0.140000X0.140000X0.170000X-0.140000X0.170000X-0.140000X-0.170000X0.140000X-0.170000X0*%
%ADD44RoundRect,0.250000X0.250000X0.475000X-0.250000X0.475000X-0.250000X-0.475000X0.250000X-0.475000X0*%
%ADD45RoundRect,0.225000X-0.225000X0.425000X-0.225000X-0.425000X0.225000X-0.425000X0.225000X0.425000X0*%
%ADD46FreePoly0,270.000000*%
%ADD47R,1.500000X0.900000*%
%ADD48R,0.900000X1.500000*%
%ADD49R,4.000000X4.000000*%
%ADD50C,0.650000*%
%ADD51RoundRect,0.150000X-0.425000X0.150000X-0.425000X-0.150000X0.425000X-0.150000X0.425000X0.150000X0*%
%ADD52RoundRect,0.075000X-0.500000X0.075000X-0.500000X-0.075000X0.500000X-0.075000X0.500000X0.075000X0*%
%ADD53O,2.100000X1.000000*%
%ADD54O,1.800000X1.000000*%
%ADD55RoundRect,0.125000X-0.125000X-0.125000X0.125000X-0.125000X0.125000X0.125000X-0.125000X0.125000X0*%
%ADD56RoundRect,0.250000X0.325000X0.650000X-0.325000X0.650000X-0.325000X-0.650000X0.325000X-0.650000X0*%
%ADD57RoundRect,0.250000X1.050000X-1.050000X1.050000X1.050000X-1.050000X1.050000X-1.050000X-1.050000X0*%
%ADD58C,2.600000*%
%ADD59R,3.600000X3.600000*%
%ADD60RoundRect,0.112500X-0.112500X-0.237500X0.112500X-0.237500X0.112500X0.237500X-0.112500X0.237500X0*%
%ADD61RoundRect,0.250000X-1.425000X0.362500X-1.425000X-0.362500X1.425000X-0.362500X1.425000X0.362500X0*%
%ADD62RoundRect,0.125000X0.125000X0.125000X-0.125000X0.125000X-0.125000X-0.125000X0.125000X-0.125000X0*%
%ADD63RoundRect,0.140000X-0.170000X0.140000X-0.170000X-0.140000X0.170000X-0.140000X0.170000X0.140000X0*%
%ADD64RoundRect,0.250000X-0.250000X-0.475000X0.250000X-0.475000X0.250000X0.475000X-0.250000X0.475000X0*%
%ADD65RoundRect,0.250000X-0.325000X-0.650000X0.325000X-0.650000X0.325000X0.650000X-0.325000X0.650000X0*%
%ADD66RoundRect,0.062500X-0.062500X0.117500X-0.062500X-0.117500X0.062500X-0.117500X0.062500X0.117500X0*%
%ADD67RoundRect,0.175000X-0.400000X0.175000X-0.400000X-0.175000X0.400000X-0.175000X0.400000X0.175000X0*%
%ADD68FreePoly1,0.000000*%
%ADD69RoundRect,0.100000X-0.225000X-0.100000X0.225000X-0.100000X0.225000X0.100000X-0.225000X0.100000X0*%
%ADD70RoundRect,0.062500X0.062500X-0.117500X0.062500X0.117500X-0.062500X0.117500X-0.062500X-0.117500X0*%
%ADD71RoundRect,0.350000X1.750000X0.350000X-1.750000X0.350000X-1.750000X-0.350000X1.750000X-0.350000X0*%
%ADD72RoundRect,0.150000X-0.512500X-0.150000X0.512500X-0.150000X0.512500X0.150000X-0.512500X0.150000X0*%
%ADD73RoundRect,0.250000X-0.650000X0.325000X-0.650000X-0.325000X0.650000X-0.325000X0.650000X0.325000X0*%
%ADD74RoundRect,0.150000X0.512500X0.150000X-0.512500X0.150000X-0.512500X-0.150000X0.512500X-0.150000X0*%
%ADD75FreePoly2,0.000000*%
%ADD76RoundRect,0.225000X-0.225000X-0.250000X0.225000X-0.250000X0.225000X0.250000X-0.225000X0.250000X0*%
%ADD77R,1.200000X3.700000*%
%ADD78RoundRect,0.218750X-0.218750X-0.256250X0.218750X-0.256250X0.218750X0.256250X-0.218750X0.256250X0*%
%ADD79C,2.200000*%
%ADD80RoundRect,1.400000X-0.000010X1.350000X-0.000010X-1.350000X0.000010X-1.350000X0.000010X1.350000X0*%
%ADD81RoundRect,1.400000X-0.000010X1.100000X-0.000010X-1.100000X0.000010X-1.100000X0.000010X1.100000X0*%
%ADD82RoundRect,1.400000X-1.100000X-0.000010X1.100000X-0.000010X1.100000X0.000010X-1.100000X0.000010X0*%
%ADD83RoundRect,0.125000X0.125000X-0.125000X0.125000X0.125000X-0.125000X0.125000X-0.125000X-0.125000X0*%
%ADD84RoundRect,0.250000X-0.325000X-1.100000X0.325000X-1.100000X0.325000X1.100000X-0.325000X1.100000X0*%
G04 APERTURE END LIST*
D10*
X67750000Y-50900000D02*
X65900000Y-52750000D01*
X60000000Y-52750000D01*
X60000000Y-45000000D01*
X67750000Y-45000000D01*
X67750000Y-50900000D01*
G36*
X67750000Y-50900000D02*
G01*
X65900000Y-52750000D01*
X60000000Y-52750000D01*
X60000000Y-45000000D01*
X67750000Y-45000000D01*
X67750000Y-50900000D01*
G37*
X60000000Y-100700000D02*
X61800000Y-100700000D01*
X61800000Y-102150000D01*
X60000000Y-102150000D01*
X60000000Y-100700000D01*
G36*
X60000000Y-100700000D02*
G01*
X61800000Y-100700000D01*
X61800000Y-102150000D01*
X60000000Y-102150000D01*
X60000000Y-100700000D01*
G37*
X67675000Y-44750000D02*
X69225000Y-44750000D01*
X69225000Y-46550000D01*
X67675000Y-46550000D01*
X67675000Y-44750000D01*
G36*
X67675000Y-44750000D02*
G01*
X69225000Y-44750000D01*
X69225000Y-46550000D01*
X67675000Y-46550000D01*
X67675000Y-44750000D01*
G37*
X125000000Y-110000000D02*
X117250000Y-110000000D01*
X117250000Y-104100000D01*
X119100000Y-102250000D01*
X125000000Y-102250000D01*
X125000000Y-110000000D01*
G36*
X125000000Y-110000000D02*
G01*
X117250000Y-110000000D01*
X117250000Y-104100000D01*
X119100000Y-102250000D01*
X125000000Y-102250000D01*
X125000000Y-110000000D01*
G37*
X115650000Y-44850000D02*
X117200000Y-44850000D01*
X117200000Y-46650000D01*
X115650000Y-46650000D01*
X115650000Y-44850000D01*
G36*
X115650000Y-44850000D02*
G01*
X117200000Y-44850000D01*
X117200000Y-46650000D01*
X115650000Y-46650000D01*
X115650000Y-44850000D01*
G37*
X115650000Y-108350000D02*
X117150000Y-108350000D01*
X117150000Y-110150000D01*
X115650000Y-110150000D01*
X115650000Y-108350000D01*
G36*
X115650000Y-108350000D02*
G01*
X117150000Y-108350000D01*
X117150000Y-110150000D01*
X115650000Y-110150000D01*
X115650000Y-108350000D01*
G37*
X67750000Y-104100000D02*
X67750000Y-110000000D01*
X60000000Y-110000000D01*
X60000000Y-102250000D01*
X65900000Y-102250000D01*
X67750000Y-104100000D01*
G36*
X67750000Y-104100000D02*
G01*
X67750000Y-110000000D01*
X60000000Y-110000000D01*
X60000000Y-102250000D01*
X65900000Y-102250000D01*
X67750000Y-104100000D01*
G37*
X125000000Y-52750000D02*
X119100000Y-52750000D01*
X117250000Y-50900000D01*
X117250000Y-45000000D01*
X125000000Y-45000000D01*
X125000000Y-52750000D01*
G36*
X125000000Y-52750000D02*
G01*
X119100000Y-52750000D01*
X117250000Y-50900000D01*
X117250000Y-45000000D01*
X125000000Y-45000000D01*
X125000000Y-52750000D01*
G37*
D11*
%TO.C,D6*%
X100450000Y-63100000D03*
X102550000Y-63100000D03*
%TD*%
D12*
%TO.C,R12*%
X90050000Y-78625000D03*
X90050000Y-80275000D03*
%TD*%
D11*
%TO.C,D20*%
X100450000Y-57300000D03*
X102550000Y-57300000D03*
%TD*%
D13*
%TO.C,D4*%
X74700000Y-52300000D03*
X72600000Y-52300000D03*
%TD*%
D14*
%TO.C,R48*%
X103800000Y-78410000D03*
X103800000Y-77390000D03*
%TD*%
D15*
%TO.C,R45*%
X101690000Y-64600000D03*
X102710000Y-64600000D03*
%TD*%
D14*
%TO.C,R4*%
X66850000Y-81160000D03*
X66850000Y-80140000D03*
%TD*%
%TO.C,R36*%
X103700000Y-56800000D03*
X103700000Y-55780000D03*
%TD*%
D16*
%TO.C,C21*%
X93675000Y-83800000D03*
X90725000Y-83800000D03*
%TD*%
D17*
%TO.C,R58*%
X116100000Y-89425000D03*
X116100000Y-87775000D03*
%TD*%
D18*
%TO.C,FID4*%
X68600000Y-45900000D03*
%TD*%
D19*
%TO.C,C23*%
X88150000Y-75075000D03*
X88150000Y-73525000D03*
%TD*%
D20*
%TO.C,U7*%
X80135000Y-107700000D03*
X80135000Y-106500000D03*
X80135000Y-105300000D03*
X80135000Y-104100000D03*
D21*
X80135000Y-101100000D03*
D22*
X72600000Y-103500000D03*
%TD*%
D23*
%TO.C,C32*%
X90990000Y-96429800D03*
X90990000Y-105980200D03*
%TD*%
D24*
%TO.C,D10*%
X98780610Y-46742990D03*
X98780610Y-48317990D03*
%TD*%
D15*
%TO.C,R43*%
X101690000Y-61600000D03*
X102710000Y-61600000D03*
%TD*%
%TO.C,R20*%
X83790000Y-75555000D03*
X84810000Y-75555000D03*
%TD*%
D25*
%TO.C,D1*%
X70350000Y-47687500D03*
X70350000Y-46112500D03*
%TD*%
D15*
%TO.C,R24*%
X76080000Y-57950000D03*
X77100000Y-57950000D03*
%TD*%
D26*
%TO.C,J1*%
X62150000Y-78000000D03*
D27*
X62150000Y-75460000D03*
X62150000Y-72920000D03*
X62150000Y-70380000D03*
%TD*%
D26*
%TO.C,J7*%
X122900000Y-76000000D03*
D27*
X122900000Y-78540000D03*
X122900000Y-81080000D03*
X122900000Y-83620000D03*
%TD*%
D28*
%TO.C,U6*%
X84800000Y-74300000D03*
X84800000Y-73650000D03*
X84800000Y-73000000D03*
X84800000Y-72350000D03*
X81400000Y-72350000D03*
X81400000Y-73000000D03*
X81400000Y-73650000D03*
X81400000Y-74300000D03*
%TD*%
D15*
%TO.C,R40*%
X96890000Y-68700000D03*
X97910000Y-68700000D03*
%TD*%
%TO.C,R49*%
X101640000Y-70350000D03*
X102660000Y-70350000D03*
%TD*%
D29*
%TO.C,R27*%
X77100000Y-60950000D03*
X76080000Y-60950000D03*
%TD*%
D30*
%TO.C,R29*%
X97375000Y-84450000D03*
X95725000Y-84450000D03*
%TD*%
D31*
%TO.C,D16*%
X81600000Y-91500000D03*
X81600000Y-89400000D03*
%TD*%
D32*
%TO.C,C28*%
X102500000Y-79925000D03*
X102500000Y-81475000D03*
%TD*%
%TO.C,C31*%
X103800000Y-92025000D03*
X103800000Y-93575000D03*
%TD*%
D33*
%TO.C,J8*%
X121500000Y-66700000D03*
X121500000Y-61620000D03*
X121500000Y-56540000D03*
%TD*%
D34*
%TO.C,D9*%
X76100000Y-82700000D03*
X76100000Y-84900000D03*
%TD*%
D15*
%TO.C,R41*%
X69090000Y-59050000D03*
X70110000Y-59050000D03*
%TD*%
D35*
%TO.C,R57*%
X118675000Y-85700000D03*
X120325000Y-85700000D03*
%TD*%
D14*
%TO.C,R38*%
X103700000Y-53110000D03*
X103700000Y-52090000D03*
%TD*%
D36*
%TO.C,C4*%
X76120000Y-56950000D03*
X77080000Y-56950000D03*
%TD*%
D37*
%TO.C,U4*%
X95137500Y-71450000D03*
X95137500Y-70950000D03*
X95137500Y-70450000D03*
X95137500Y-69950000D03*
X95137500Y-69450000D03*
X95137500Y-68950000D03*
D38*
X94450000Y-68262500D03*
X93950000Y-68262500D03*
X93450000Y-68262500D03*
X92950000Y-68262500D03*
X92450000Y-68262500D03*
X91950000Y-68262500D03*
D37*
X91262500Y-68950000D03*
X91262500Y-69450000D03*
X91262500Y-69950000D03*
X91262500Y-70450000D03*
X91262500Y-70950000D03*
X91262500Y-71450000D03*
D38*
X91950000Y-72137500D03*
X92450000Y-72137500D03*
X92950000Y-72137500D03*
X93450000Y-72137500D03*
X93950000Y-72137500D03*
X94450000Y-72137500D03*
D39*
X93200000Y-70200000D03*
%TD*%
D40*
%TO.C,C18*%
X82645000Y-100750000D03*
X82645000Y-102650000D03*
%TD*%
D15*
%TO.C,R50*%
X96890000Y-71200000D03*
X97910000Y-71200000D03*
%TD*%
D23*
%TO.C,C30*%
X105990000Y-96429800D03*
X105990000Y-105980200D03*
%TD*%
D41*
%TO.C,R54*%
X103800000Y-79890000D03*
X103800000Y-80910000D03*
%TD*%
D14*
%TO.C,R13*%
X97950000Y-63220000D03*
X97950000Y-62200000D03*
%TD*%
D42*
%TO.C,C17*%
X74836800Y-50250000D03*
X74836800Y-49290000D03*
%TD*%
D32*
%TO.C,C26*%
X100900000Y-78425000D03*
X100900000Y-79975000D03*
%TD*%
D11*
%TO.C,D22*%
X100450000Y-74830000D03*
X102550000Y-74830000D03*
%TD*%
D40*
%TO.C,C20*%
X87900000Y-76650000D03*
X87900000Y-78550000D03*
%TD*%
D29*
%TO.C,R25*%
X77100000Y-59950000D03*
X76080000Y-59950000D03*
%TD*%
D18*
%TO.C,FID1*%
X116400000Y-45900000D03*
%TD*%
D11*
%TO.C,D18*%
X80200000Y-85150000D03*
X82300000Y-85150000D03*
%TD*%
D43*
%TO.C,C13*%
X76840800Y-48238000D03*
X75880800Y-48238000D03*
%TD*%
D44*
%TO.C,C36*%
X96450000Y-74150000D03*
X94550000Y-74150000D03*
%TD*%
D45*
%TO.C,U1*%
X76150000Y-67960900D03*
D46*
X74650000Y-68048400D03*
D45*
X73150000Y-67960900D03*
%TD*%
D15*
%TO.C,R31*%
X101700000Y-55800000D03*
X102720000Y-55800000D03*
%TD*%
D30*
%TO.C,R28*%
X82225000Y-83350000D03*
X80575000Y-83350000D03*
%TD*%
D15*
%TO.C,R22*%
X76090000Y-55950000D03*
X77110000Y-55950000D03*
%TD*%
D12*
%TO.C,R1*%
X71950000Y-46075000D03*
X71950000Y-47725000D03*
%TD*%
D18*
%TO.C,FID2*%
X61050000Y-101450000D03*
%TD*%
D44*
%TO.C,C34*%
X71750000Y-96400000D03*
X69850000Y-96400000D03*
%TD*%
D47*
%TO.C,U5*%
X78882800Y-46706000D03*
X78882800Y-47976000D03*
X78882800Y-49246000D03*
X78882800Y-50516000D03*
X78882800Y-51786000D03*
X78882800Y-53056000D03*
X78882800Y-54326000D03*
X78882800Y-55596000D03*
X78882800Y-56866000D03*
X78882800Y-58136000D03*
X78882800Y-59406000D03*
X78882800Y-60676000D03*
X78882800Y-61946000D03*
X78882800Y-63216000D03*
D48*
X80647800Y-64466000D03*
X81917800Y-64466000D03*
X83187800Y-64466000D03*
X84457800Y-64466000D03*
X85727800Y-64466000D03*
X86997800Y-64466000D03*
X88267800Y-64466000D03*
X89537800Y-64466000D03*
X90807800Y-64466000D03*
X92077800Y-64466000D03*
X93347800Y-64466000D03*
X94617800Y-64466000D03*
D47*
X96382800Y-63216000D03*
X96382800Y-61946000D03*
X96382800Y-60676000D03*
X96382800Y-59406000D03*
X96382800Y-58136000D03*
X96382800Y-56866000D03*
X96382800Y-55596000D03*
X96382800Y-54326000D03*
X96382800Y-53056000D03*
X96382800Y-51786000D03*
X96382800Y-50516000D03*
X96382800Y-49246000D03*
X96382800Y-47976000D03*
X96382800Y-46706000D03*
D49*
X86272800Y-52056000D03*
%TD*%
D41*
%TO.C,R11*%
X76868800Y-49260000D03*
X76868800Y-50280000D03*
%TD*%
D50*
%TO.C,J5*%
X66305000Y-57810000D03*
X66305000Y-63590000D03*
D51*
X67380000Y-57500000D03*
X67380000Y-58300000D03*
D52*
X67380000Y-59450000D03*
X67380000Y-60450000D03*
X67380000Y-60950000D03*
X67380000Y-61950000D03*
D51*
X67380000Y-63100000D03*
X67380000Y-63900000D03*
X67380000Y-63900000D03*
X67380000Y-63100000D03*
D52*
X67380000Y-62450000D03*
X67380000Y-61450000D03*
X67380000Y-59950000D03*
X67380000Y-58950000D03*
D51*
X67380000Y-58300000D03*
X67380000Y-57500000D03*
D53*
X66805000Y-56380000D03*
D54*
X62625000Y-56380000D03*
D53*
X66805000Y-65020000D03*
D54*
X62625000Y-65020000D03*
%TD*%
D14*
%TO.C,R47*%
X103700000Y-65510000D03*
X103700000Y-64490000D03*
%TD*%
D32*
%TO.C,C33*%
X93200000Y-92025000D03*
X93200000Y-93575000D03*
%TD*%
D15*
%TO.C,R35*%
X88040000Y-70750000D03*
X89060000Y-70750000D03*
%TD*%
D14*
%TO.C,R46*%
X103700000Y-61810000D03*
X103700000Y-60790000D03*
%TD*%
D29*
%TO.C,R18*%
X82460000Y-75555000D03*
X81440000Y-75555000D03*
%TD*%
D11*
%TO.C,D19*%
X100450000Y-71850000D03*
X102550000Y-71850000D03*
%TD*%
D55*
%TO.C,D14*%
X98600000Y-84650000D03*
X100800000Y-84650000D03*
%TD*%
D56*
%TO.C,C15*%
X76718200Y-46468000D03*
X73768200Y-46468000D03*
%TD*%
D12*
%TO.C,R17*%
X100307010Y-49690490D03*
X100307010Y-51340490D03*
%TD*%
D41*
%TO.C,R15*%
X79750000Y-71665000D03*
X79750000Y-72685000D03*
%TD*%
D29*
%TO.C,R10*%
X83155000Y-107700000D03*
X82135000Y-107700000D03*
%TD*%
D26*
%TO.C,J2*%
X75425000Y-96400000D03*
D27*
X77965000Y-96400000D03*
%TD*%
D30*
%TO.C,R56*%
X100425000Y-82900000D03*
X98775000Y-82900000D03*
%TD*%
D41*
%TO.C,R33*%
X89300000Y-65940000D03*
X89300000Y-66960000D03*
%TD*%
D30*
%TO.C,R30*%
X82225000Y-81750000D03*
X80575000Y-81750000D03*
%TD*%
D57*
%TO.C,J9*%
X120000000Y-98500000D03*
D58*
X120000000Y-93420000D03*
%TD*%
D34*
%TO.C,D3*%
X70250000Y-71150000D03*
X70250000Y-73350000D03*
%TD*%
D41*
%TO.C,R32*%
X88250000Y-65940000D03*
X88250000Y-66960000D03*
%TD*%
D14*
%TO.C,R52*%
X103700000Y-70540000D03*
X103700000Y-69520000D03*
%TD*%
D59*
%TO.C,L3*%
X95290000Y-89705000D03*
X101690000Y-89705000D03*
%TD*%
D60*
%TO.C,D27*%
X95950000Y-77900000D03*
X97250000Y-77900000D03*
X96600000Y-75900000D03*
%TD*%
D29*
%TO.C,R8*%
X83155000Y-104095000D03*
X82135000Y-104095000D03*
%TD*%
D19*
%TO.C,C27*%
X102500000Y-78415000D03*
X102500000Y-76865000D03*
%TD*%
D14*
%TO.C,R53*%
X103700000Y-74340000D03*
X103700000Y-73320000D03*
%TD*%
D61*
%TO.C,R39*%
X106650000Y-77550000D03*
X106650000Y-83475000D03*
%TD*%
D62*
%TO.C,D2*%
X70606000Y-75114000D03*
X68406000Y-75114000D03*
%TD*%
D63*
%TO.C,C2*%
X71600000Y-67970000D03*
X71600000Y-68930000D03*
%TD*%
D36*
%TO.C,C11*%
X76110000Y-58950000D03*
X77070000Y-58950000D03*
%TD*%
D29*
%TO.C,R23*%
X77100000Y-54950000D03*
X76080000Y-54950000D03*
%TD*%
D41*
%TO.C,R5*%
X65800000Y-80140000D03*
X65800000Y-81160000D03*
%TD*%
D64*
%TO.C,C7*%
X68566000Y-77215200D03*
X70466000Y-77215200D03*
%TD*%
D18*
%TO.C,FID3*%
X116400000Y-109100000D03*
%TD*%
D24*
%TO.C,D7*%
X100307010Y-46742990D03*
X100307010Y-48317990D03*
%TD*%
D15*
%TO.C,R44*%
X96890000Y-69950000D03*
X97910000Y-69950000D03*
%TD*%
D29*
%TO.C,R7*%
X83155000Y-105295000D03*
X82135000Y-105295000D03*
%TD*%
D34*
%TO.C,D15*%
X93050000Y-78650000D03*
X93050000Y-80850000D03*
%TD*%
D15*
%TO.C,R37*%
X101690000Y-52800000D03*
X102710000Y-52800000D03*
%TD*%
%TO.C,R9*%
X82135000Y-106500000D03*
X83155000Y-106500000D03*
%TD*%
D65*
%TO.C,C9*%
X73378200Y-65796100D03*
X76328200Y-65796100D03*
%TD*%
D66*
%TO.C,D13*%
X69500000Y-57620000D03*
X69500000Y-56780000D03*
%TD*%
D56*
%TO.C,C3*%
X70225000Y-67950000D03*
X67275000Y-67950000D03*
%TD*%
D30*
%TO.C,R14*%
X123525000Y-87200000D03*
X121875000Y-87200000D03*
%TD*%
D36*
%TO.C,C6*%
X73670000Y-64050000D03*
X74630000Y-64050000D03*
%TD*%
D67*
%TO.C,Q1*%
X105025000Y-52295000D03*
X105025000Y-53565000D03*
X105025000Y-54835000D03*
X105025000Y-56105000D03*
D68*
X108250000Y-55470000D03*
X108250000Y-52930000D03*
%TD*%
D13*
%TO.C,D17*%
X82300000Y-79950000D03*
X80200000Y-79950000D03*
%TD*%
D63*
%TO.C,C8*%
X79907500Y-69752500D03*
X79907500Y-70712500D03*
%TD*%
D69*
%TO.C,U3*%
X81150000Y-69100000D03*
X81150000Y-69750000D03*
X81150000Y-70400000D03*
X83050000Y-70400000D03*
X83050000Y-69750000D03*
X83050000Y-69100000D03*
%TD*%
D29*
%TO.C,R6*%
X76972400Y-52310000D03*
X75952400Y-52310000D03*
%TD*%
D26*
%TO.C,J11*%
X84775000Y-83825000D03*
D27*
X84775000Y-81285000D03*
X87315000Y-83825000D03*
X87315000Y-81285000D03*
%TD*%
D41*
%TO.C,R34*%
X90350000Y-65940000D03*
X90350000Y-66960000D03*
%TD*%
D67*
%TO.C,Q3*%
X105025000Y-69695000D03*
X105025000Y-70965000D03*
X105025000Y-72235000D03*
X105025000Y-73505000D03*
D68*
X108250000Y-72870000D03*
X108250000Y-70330000D03*
%TD*%
D43*
%TO.C,C22*%
X89030000Y-68650000D03*
X88070000Y-68650000D03*
%TD*%
D70*
%TO.C,D11*%
X69250000Y-61860000D03*
X69250000Y-62700000D03*
%TD*%
D12*
%TO.C,R19*%
X98780610Y-49690490D03*
X98780610Y-51340490D03*
%TD*%
D71*
%TO.C,L1*%
X73798600Y-77115200D03*
X73798600Y-74315200D03*
%TD*%
D15*
%TO.C,R51*%
X101690000Y-73330000D03*
X102710000Y-73330000D03*
%TD*%
D43*
%TO.C,C12*%
X76942400Y-51294000D03*
X75982400Y-51294000D03*
%TD*%
D66*
%TO.C,D12*%
X69250000Y-60850000D03*
X69250000Y-60010000D03*
%TD*%
D43*
%TO.C,C25*%
X89030000Y-71800000D03*
X88070000Y-71800000D03*
%TD*%
D13*
%TO.C,D5*%
X117250000Y-86000000D03*
X115150000Y-86000000D03*
%TD*%
D14*
%TO.C,R2*%
X72808000Y-81212000D03*
X72808000Y-80192000D03*
%TD*%
D72*
%TO.C,U2*%
X69003500Y-79244000D03*
X69003500Y-80194000D03*
X69003500Y-81144000D03*
X71278500Y-81144000D03*
X71278500Y-80194000D03*
X71278500Y-79244000D03*
%TD*%
D73*
%TO.C,C10*%
X77450000Y-74225000D03*
X77450000Y-77175000D03*
%TD*%
D74*
%TO.C,Q8*%
X120137500Y-89250000D03*
X120137500Y-87350000D03*
X117862500Y-88300000D03*
%TD*%
D67*
%TO.C,U8*%
X83520000Y-88295000D03*
X83520000Y-89565000D03*
X83520000Y-90845000D03*
X83520000Y-92115000D03*
D75*
X86790000Y-90205000D03*
%TD*%
D76*
%TO.C,C37*%
X95725000Y-79400000D03*
X97275000Y-79400000D03*
%TD*%
D11*
%TO.C,D24*%
X100450000Y-54300000D03*
X102550000Y-54300000D03*
%TD*%
%TO.C,D21*%
X100450000Y-66100000D03*
X102550000Y-66100000D03*
%TD*%
D43*
%TO.C,C29*%
X89030000Y-69700000D03*
X88070000Y-69700000D03*
%TD*%
D63*
%TO.C,C14*%
X79750000Y-73645000D03*
X79750000Y-74605000D03*
%TD*%
D77*
%TO.C,L2*%
X90000000Y-75601000D03*
X92800000Y-75601000D03*
%TD*%
D13*
%TO.C,D25*%
X97300000Y-81150000D03*
X95200000Y-81150000D03*
%TD*%
D15*
%TO.C,R26*%
X76080000Y-61950000D03*
X77100000Y-61950000D03*
%TD*%
D63*
%TO.C,C5*%
X86400000Y-72820000D03*
X86400000Y-73780000D03*
%TD*%
D78*
%TO.C,D26*%
X121912500Y-88800000D03*
X123487500Y-88800000D03*
%TD*%
D63*
%TO.C,C16*%
X75852800Y-49290000D03*
X75852800Y-50250000D03*
%TD*%
D79*
%TO.C,J10*%
X63000000Y-87000000D03*
D80*
X73400000Y-87000000D03*
D81*
X67500000Y-87000000D03*
D82*
X70500000Y-91800000D03*
%TD*%
D41*
%TO.C,R3*%
X79900000Y-67740000D03*
X79900000Y-68760000D03*
%TD*%
D15*
%TO.C,R42*%
X69090000Y-63650000D03*
X70110000Y-63650000D03*
%TD*%
D76*
%TO.C,C35*%
X95775000Y-82900000D03*
X97325000Y-82900000D03*
%TD*%
D83*
%TO.C,D8*%
X71800000Y-62100000D03*
X71800000Y-59900000D03*
%TD*%
D35*
%TO.C,R16*%
X84425000Y-69750000D03*
X86075000Y-69750000D03*
%TD*%
D30*
%TO.C,R55*%
X86325000Y-86600000D03*
X84675000Y-86600000D03*
%TD*%
D67*
%TO.C,Q2*%
X105025000Y-60995000D03*
X105025000Y-62265000D03*
X105025000Y-63535000D03*
X105025000Y-64805000D03*
D68*
X108250000Y-64170000D03*
X108250000Y-61630000D03*
%TD*%
D84*
%TO.C,C1*%
X74375000Y-80300000D03*
X77325000Y-80300000D03*
%TD*%
D32*
%TO.C,C24*%
X94450000Y-75925000D03*
X94450000Y-77475000D03*
%TD*%
M02*
