M48
; DRILL file {KiCad 9.0.6-9.0.6~ubuntu24.04.1} date 2025-12-14T15:22:30+0100
; FORMAT={-:-/ absolute / metric / decimal}
; #@! TF.CreationDate,2025-12-14T15:22:30+01:00
; #@! TF.GenerationSoftware,Kicad,Pcbnew,9.0.6-9.0.6~ubuntu24.04.1
; #@! TF.FileFunction,Plated,1,2,PTH
FMAT,2
METRIC
; #@! TA.AperFunction,Plated,PTH,ComponentDrill
T1C0.200
; #@! TA.AperFunction,Plated,PTH,ViaDrill
T2C0.300
; #@! TA.AperFunction,Plated,PTH,ViaDrill
T3C0.400
; #@! TA.AperFunction,Plated,PTH,ComponentDrill
T4C0.600
; #@! TA.AperFunction,Plated,PTH,ComponentDrill
T5C0.800
; #@! TA.AperFunction,Plated,PTH,ComponentDrill
T6C1.000
; #@! TA.AperFunction,Plated,PTH,ComponentDrill
T7C1.300
%
G90
G05
T1
X84.773Y-51.306
X84.773Y-52.806
X85.523Y-50.556
X85.523Y-52.056
X85.523Y-53.556
X86.273Y-51.306
X86.273Y-52.806
X87.023Y-50.556
X87.023Y-52.056
X87.023Y-53.556
X87.773Y-51.306
X87.773Y-52.806
X92.15Y-69.15
X92.15Y-70.2
X92.15Y-71.25
X93.2Y-69.15
X93.2Y-70.2
X93.2Y-71.25
X94.25Y-69.15
X94.25Y-70.2
X94.25Y-71.25
T2
X62.5Y-54.0
X62.5Y-60.5
X62.5Y-68.5
X63.0Y-82.5
X63.0Y-89.0
X63.0Y-100.5
X63.45Y-94.9
X64.55Y-76.65
X65.0Y-74.0
X66.82Y-79.45
X67.0Y-74.0
X67.0Y-76.7
X67.95Y-95.0
X68.0Y-100.5
X68.281Y-71.875
X68.349Y-73.125
X68.853Y-72.491
X69.0Y-48.0
X69.0Y-54.0
X69.0Y-69.5
X69.0Y-71.0
X70.3Y-60.25
X70.5Y-83.0
X71.3Y-74.3
X71.5Y-70.0
X71.5Y-71.0
X71.75Y-66.75
X72.35Y-67.97
X72.85Y-47.7
X73.5Y-50.0
X73.5Y-58.5
X74.525Y-57.95
X75.3Y-55.95
X76.862Y-53.13
X76.992Y-53.976
X77.492Y-51.012
X77.5Y-108.0
X78.0Y-83.5
X78.0Y-86.0
X78.5Y-65.0
X78.5Y-67.0
X78.5Y-71.0
X78.5Y-72.5
X78.5Y-79.0
X78.5Y-82.0
X78.75Y-90.6
X78.75Y-93.75
X79.145Y-76.901
X79.166Y-77.7
X79.166Y-76.089
X79.4Y-91.1
X80.0Y-95.0
X80.0Y-96.0
X80.0Y-97.0
X80.0Y-98.0
X80.05Y-49.3
X80.05Y-52.1
X80.075Y-90.62
X80.15Y-55.1
X80.5Y-69.75
X80.526Y-68.95
X80.801Y-68.15
X80.95Y-55.1
X81.0Y-95.0
X81.0Y-96.0
X81.0Y-97.0
X81.0Y-98.0
X81.252Y-62.216
X81.252Y-63.1
X81.318Y-76.975
X81.4Y-71.929
X81.5Y-78.5
X81.712Y-58.334
X81.8Y-76.336
X81.824Y-77.6
X82.0Y-95.0
X82.0Y-96.0
X82.0Y-97.0
X82.0Y-98.0
X82.1Y-92.35
X82.5Y-46.0
X82.5Y-49.5
X82.5Y-55.0
X82.575Y-73.025
X83.0Y-95.0
X83.0Y-96.0
X83.0Y-97.0
X83.0Y-98.0
X83.0Y-99.0
X83.1Y-74.5
X83.675Y-71.683
X84.195Y-58.35
X84.25Y-100.7
X84.3Y-102.45
X84.35Y-68.05
X84.4Y-65.9
X84.5Y-108.0
X85.0Y-77.0
X85.0Y-79.0
X85.95Y-71.45
X86.0Y-93.5
X86.2Y-62.55
X86.2Y-65.9
X86.95Y-63.3
X87.15Y-69.7
X87.25Y-70.75
X87.3Y-86.2
X87.4Y-102.2
X87.4Y-104.2
X87.4Y-106.0
X87.4Y-108.0
X87.5Y-46.0
X87.5Y-49.5
X87.5Y-55.0
X87.5Y-59.5
X87.6Y-67.75
X88.65Y-79.9
X89.0Y-82.05
X89.0Y-87.0
X89.0Y-93.5
X89.4Y-62.5
X89.607Y-69.052
X89.65Y-71.0
X89.701Y-70.179
X90.218Y-69.569
X91.0Y-102.2
X91.35Y-65.95
X91.4Y-76.05
X91.45Y-78.35
X91.55Y-80.35
X91.85Y-62.45
X92.0Y-59.5
X92.0Y-82.45
X92.15Y-85.0
X92.3Y-66.3
X92.866Y-66.866
X92.95Y-81.7
X93.5Y-87.0
X94.3Y-81.6
X94.35Y-78.95
X94.4Y-102.2
X94.4Y-104.2
X94.4Y-106.0
X94.5Y-46.0
X94.95Y-61.75
X95.1Y-53.95
X95.1Y-62.8
X95.15Y-51.25
X95.2Y-53.048
X95.25Y-55.596
X95.25Y-56.9
X95.3Y-50.45
X95.31Y-67.576
X96.634Y-83.506
X96.65Y-65.75
X96.85Y-67.7
X97.675Y-66.859
X97.9Y-52.7
X97.9Y-57.1
X97.9Y-60.9
X98.0Y-102.2
X98.0Y-104.2
X98.0Y-106.0
X98.25Y-75.0
X99.2Y-58.65
X99.543Y-50.558
X99.95Y-78.4
X99.992Y-58.763
X100.0Y-79.95
X100.35Y-63.85
X100.4Y-81.699
X100.45Y-54.9
X100.5Y-69.0
X100.6Y-60.9
X101.0Y-66.1
X101.0Y-73.5
X101.0Y-76.0
X101.0Y-77.0
X101.5Y-45.85
X101.5Y-72.0
X101.6Y-51.55
X102.25Y-67.0
X102.4Y-60.55
X102.45Y-58.3
X102.8Y-102.2
X102.8Y-104.2
X102.8Y-106.0
X102.8Y-108.0
X102.95Y-51.989
X103.6Y-54.15
X103.6Y-55.05
X103.6Y-62.85
X103.6Y-63.75
X103.6Y-71.55
X103.6Y-72.5
X104.0Y-46.0
X104.0Y-87.0
X104.05Y-48.5
X104.05Y-54.6
X104.05Y-63.3
X104.05Y-72.05
X104.35Y-84.5
X104.805Y-85.158
X105.6Y-79.6
X105.6Y-80.4
X105.6Y-81.2
X105.6Y-82.0
X106.0Y-102.2
X106.6Y-79.6
X106.6Y-80.4
X106.6Y-81.2
X106.6Y-82.0
X107.6Y-79.6
X107.6Y-80.4
X107.6Y-81.2
X107.6Y-82.0
X107.7Y-87.0
X108.0Y-46.0
X108.0Y-48.5
X108.5Y-92.5
X109.2Y-102.2
X109.2Y-104.2
X109.2Y-106.0
X109.2Y-108.0
X112.0Y-48.45
X112.0Y-52.3
X112.0Y-52.95
X112.0Y-53.55
X112.0Y-61.0
X112.0Y-61.65
X112.0Y-62.25
X112.0Y-69.7
X112.0Y-70.35
X112.0Y-70.95
X112.5Y-92.5
X112.65Y-52.3
X112.65Y-52.95
X112.65Y-53.55
X112.65Y-61.0
X112.65Y-61.65
X112.65Y-62.25
X112.65Y-69.7
X112.65Y-70.35
X112.65Y-70.95
X112.85Y-45.95
X113.3Y-52.95
X113.3Y-53.55
X113.3Y-61.0
X113.3Y-61.65
X113.3Y-69.7
X113.3Y-70.35
X113.8Y-102.2
X113.8Y-104.2
X113.8Y-106.0
X113.8Y-108.0
X114.5Y-87.5
X114.5Y-91.0
X115.0Y-46.0
X115.0Y-75.0
X115.0Y-79.7
X116.0Y-83.0
X116.0Y-85.0
X117.0Y-100.0
X118.0Y-54.0
X118.0Y-59.0
X118.0Y-64.0
X118.0Y-74.0
X120.325Y-84.825
X120.75Y-82.35
X123.0Y-54.0
X123.0Y-59.0
X123.0Y-64.0
X123.0Y-69.0
X123.0Y-74.0
X123.0Y-90.0
X123.0Y-94.5
X123.0Y-100.0
T3
X73.65Y-63.2
X74.45Y-66.65
X75.6Y-46.45
X105.5Y-75.35
X105.5Y-76.3
X106.65Y-75.35
X106.65Y-76.3
X107.8Y-75.35
X107.8Y-76.3
X109.55Y-87.2
X109.55Y-88.1
X109.55Y-89.0
X109.55Y-89.9
X110.45Y-87.2
X110.45Y-88.1
X110.45Y-89.0
X110.45Y-89.9
X111.35Y-87.2
X111.35Y-88.1
X111.35Y-89.0
X111.35Y-89.9
X112.25Y-87.2
X112.25Y-88.1
X112.25Y-89.0
X112.25Y-89.9
X113.15Y-87.2
X113.15Y-88.1
X113.15Y-89.0
X113.15Y-89.9
T6
X62.15Y-70.38
X62.15Y-72.92
X62.15Y-75.46
X62.15Y-78.0
X75.425Y-96.4
X77.965Y-96.4
X84.775Y-81.285
X84.775Y-83.825
X87.315Y-81.285
X87.315Y-83.825
X122.9Y-76.0
X122.9Y-78.54
X122.9Y-81.08
X122.9Y-83.62
T7
X120.0Y-56.54
X120.0Y-61.62
X120.0Y-66.7
X120.0Y-93.42
X120.0Y-98.5
T4
G00X63.025Y-56.38
M15
G01X62.225Y-56.38
M16
G05
G00X63.025Y-65.02
M15
G01X62.225Y-65.02
M16
G05
G00X67.355Y-56.38
M15
G01X66.255Y-56.38
M16
G05
G00X67.355Y-65.02
M15
G01X66.255Y-65.02
M16
G05
T5
G00X67.5Y-85.9
M15
G01X67.5Y-88.1
M16
G05
G00X69.4Y-91.8
M15
G01X71.6Y-91.8
M16
G05
G00X73.4Y-85.65
M15
G01X73.4Y-88.35
M16
G05
M30
